<?xml version="1.0" encoding="utf-8"?>
<!-- Generator: Adobe Illustrator 21.1.0, SVG Export Plug-In . SVG Version: 6.00 Build 0)  -->
<svg version="1.1" id="Layer_1" xmlns="http://www.w3.org/2000/svg" xmlns:xlink="http://www.w3.org/1999/xlink" x="0px" y="0px"
	 viewBox="0 0 100 100" style="enable-background:new 0 0 100 100;" xml:space="preserve">
<style type="text/css">
	.st0{fill:#FFFFFF;}
</style>
<g>
	<path class="st0" d="M48.2,41.6c-11.1,0-21.9,0.4-32.7-0.3c-3-0.2-6.8-3.1-8.6-5.8C1.7,27.4,1.9,18.6,6.3,10
		c2.4-4.5,6-6.9,11.4-6.8c9.5,0.2,19,0,28.5,0.1c0.8,0,1.6,0.2,2.5,0.3C41.6,19.8,41.5,25.2,48.2,41.6z"/>
	<path class="st0" d="M51.7,74.6c6.3-14.5,7.1-29.6,1.7-44.8c0.5-0.1,1-0.3,1.6-0.4c1.3,2.8,2.7,5.7,3.8,8.6c1.1,2.9,2,6,3.3,10
		c2.5-5,1.8-8.7-0.4-12.1c-2-3.1-4.3-6-6.4-9c0.3-0.3,0.7-0.7,1-1c3.4,3.6,6.7,7.3,10.1,10.9c0.3-0.2,0.6-0.3,0.9-0.5
		c-1-2.3-1.9-4.6-2.8-6.6C73.1,32,90.4,64,87.6,73.8c-0.6-0.1-1.5,0.1-2-0.3c-4.6-3-8.9-3-13.3,0.6c-1.2,0.9-4.5,1.1-5.5,0.1
		c-4.2-3.8-7.9-2.8-11.8,0.2c-0.4,0.3-1,0.5-1.6,0.7C53.2,75.2,52.9,75,51.7,74.6z"/>
	<path class="st0" d="M50.5,36.9c-4.6-9.7-5-18.9-0.2-28.1c1.6-3.1,4-5.5,7.9-5.4C62.1,3.4,64.3,6,66,9c3,5.5,3.7,11.3,2.9,17.4
		c-0.4,0.2-0.8,0.4-1.2,0.6c-0.7-1.5-1.6-2.8-2.1-4.4c-1.1-4.2-1.4-8.7-3.2-12.5c-2.2-4.6-6.2-4.6-8.5,0c-1.7,3.4-2.7,7.4-3.1,11.2
		C50.1,26.4,50.5,31.5,50.5,36.9z"/>
	<path class="st0" d="M90.5,96.7c-1.6-0.5-2.7-1.1-3.8-1.2c-2.2-0.2-4.3,0-6.5-0.1c-2.2-0.1-4.9,0.5-6.6-0.5
		c-2.9-1.8-5.4-1.6-8.3-0.4c-0.9,0.4-1.9,0.8-2.9,0.8c-0.7,0-1.5-0.6-2-1.2c-0.2-0.2,0.4-1.3,0.9-1.7c3.2-2.7,9.1-2.9,13.1-1
		c1.5,0.7,3.5,0.3,5.2,0.3c2.2,0,4.9-1.1,6.6-0.2c3.3,1.8,5.7,1.2,8.5-0.6c0.9-0.5,2.3-0.2,3.4-0.3c-0.6,1.1-0.9,2.5-1.8,3.1
		C94.5,95.1,92.3,95.9,90.5,96.7z"/>
	<path class="st0" d="M68.7,83c-3.4,4-6.9,4.4-11.6,1.7c-1.9-1.1-5.1,0.5-7.8,0.6c-1.3,0.1-2.6-0.3-3.9-0.5c0.9-0.9,1.6-2.2,2.8-2.7
		c4.1-1.9,8.2-3.2,12.4,0.2c0.9,0.7,3,0.1,4.5-0.1c1.6-0.1,3.3-0.4,4.9-0.6C69.5,82.2,69.1,82.6,68.7,83z"/>
	<path class="st0" d="M68.7,83c0.4-0.4,0.9-0.9,1.3-1.3c4.1,1.5,8,2.2,11.8-0.8c0.4-0.3,1.5,0.2,2.2,0.3c-0.3,0.9-0.2,2-0.8,2.5
		C78.3,88.3,73.4,88,68.7,83z"/>
</g>
</svg>
