<?xml version="1.0" encoding="utf-8"?>
<!-- Generator: Adobe Illustrator 21.1.0, SVG Export Plug-In . SVG Version: 6.00 Build 0)  -->
<svg version="1.1" id="Layer_1" xmlns="http://www.w3.org/2000/svg" xmlns:xlink="http://www.w3.org/1999/xlink" x="0px" y="0px"
	 viewBox="0 0 100 100" style="enable-background:new 0 0 100 100;" xml:space="preserve">
<style type="text/css">
	.st0{fill:#FFFFFF;}
</style>
<g>
	<path class="st0" d="M24.4,63.5c5.1-2.5,9.9-4.9,14.6-7.3c4.3-2.1,8.5-4.3,12.8-6.4c2.5-1.3,4-0.4,4,2.5c0,3.4,0,6.8,0,10.5
		c5.4-2.7,10.5-5.3,15.7-7.8c3.3-1.6,6.5-3.2,9.8-4.9c3.4-1.7,4.7-0.9,4.7,3c0,13,0,26.1,0,39.1c0,0.7,0,1.4,0,2.1
		c1.8,0.1,3.6,0.1,3.7,2.4c0.1,1.6-1.1,2.2-3.8,2.2c-17.1,0-34.1,0-51.2,0c-0.4,0-0.8,0-1.1,0c-1.5,0-2.4-0.7-2.5-2.2
		c0-1.5,0.9-2.3,2.4-2.3c3.3,0,6.7,0,10,0c11.9,0,23.7,0,35.6,0c0.7,0,1.5,0,2.3,0c0-13.1,0-26,0-39.1c-2.7,1.3-5.3,2.6-7.8,3.9
		c-6.1,3-12.1,6.1-18.2,9.1c-2.5,1.3-4,0.4-4-2.5c0-3.4,0-6.8,0-10.4c-0.8,0.4-1.5,0.7-2.1,1c-8.2,4.1-16.5,8.2-24.7,12.3
		c-3,1.5-4.4,0.7-4.4-2.6c-0.1-3.5,0-7,0-10.6c-2.9,0-5.2,0-7.8,0c-0.3,6.1-0.5,12.3-0.8,18.7c3.3,0,6.5,0,9.8,0
		c3.2,0,3.6,0.4,3.7,3.7c0.2,5.9,0.5,11.8,0.7,17.7c0.1,2.8-0.6,3.5-3.3,3.5c-5.5,0-11,0-16.6,0c-1.4,0-2.5-0.5-2.6-2.1
		c-0.1-1.5,0.8-2.3,2.2-2.5c0.2,0,0.5-0.1,0.8-0.1c0.2-5,0.4-9.9,0.6-14.8c0.8-20.3,1.5-40.6,2.3-60.9c0.1-2.7,0.7-3.3,3.4-3.3
		c2.3,0,4.6,0,7,0c2.4,0,3.1,0.7,3.2,3.1c0.5,13.9,1,27.7,1.6,41.6C24.3,61,24.3,62.1,24.4,63.5z M18.2,20c-1.7,0-3.1,0-4.7,0
		c-0.2,5.5-0.4,10.9-0.6,16.3c2.1,0,4,0,6,0C18.6,30.9,18.4,25.5,18.2,20z"/>
	<path class="st0" d="M48.9,3.5C50.8,4.4,52.5,5,54,6c2.1,1.4,3,1.5,5-0.1c3.2-2.6,6.8-2.6,10-0.1c2.1,1.6,2.6,1.7,5,0.2
		c1.2-0.8,2.3-0.6,3.1,0.5c0.8,1.1,0.5,2.1-0.4,3c-2.5,2.6-6.9,2.7-10,0.3c-2.4-1.9-3-1.9-5.5,0c-2.9,2.2-6.6,2.2-9.6-0.1
		C49.4,8.1,49,8,46.6,9.6c-1.2,0.8-2.3,0.6-3.1-0.5c-0.8-1.1-0.6-2.3,0.4-3C45.3,5.1,47,4.4,48.9,3.5z"/>
	<path class="st0" d="M31.2,5.5c2.1,0,4.1,0,6.2,0c1.6,0,2.6,0.7,2.6,2.3c0,1.5-1,2.2-2.5,2.2c-3.7,0-7.4,0.1-11.1,0
		c-2.2,0-4.2,0.5-5.9,2c-1.2,1-2.4,1.2-3.4,0c-1-1.2-0.6-2.3,0.5-3.3c2.2-2,4.8-3.1,7.8-3.2C27.3,5.5,29.2,5.5,31.2,5.5z"/>
	<path class="st0" d="M31,89.7c0-2.2,0-4.3,0-6.5c2.5,0,4.9,0,7.4,0c0,2.2,0,4.3,0,6.5C36,89.7,33.6,89.7,31,89.7z"/>
	<path class="st0" d="M51.2,89.8c-2.5,0-4.8,0-7.3,0c0-2.2,0-4.3,0-6.6c2.4,0,4.8,0,7.3,0C51.2,85.4,51.2,87.5,51.2,89.8z"/>
	<path class="st0" d="M64,89.8c-2.5,0-4.8,0-7.3,0c0-2.2,0-4.3,0-6.6c2.4,0,4.8,0,7.3,0C64,85.4,64,87.5,64,89.8z"/>
	<path class="st0" d="M76.7,89.8c-2.5,0-4.9,0-7.3,0c0-2.2,0-4.3,0-6.6c2.4,0,4.8,0,7.3,0C76.7,85.4,76.7,87.5,76.7,89.8z"/>
	<path class="st0" d="M38.4,78.5c-2.5,0-4.9,0-7.5,0c-0.1-2.2-0.6-4.5,1.6-6c1.4-0.9,2.8-1,4.2,0C39,74,38.4,76.3,38.4,78.5z"/>
	<path class="st0" d="M51.2,78.5c-2.5,0-4.9,0-7.4,0c-0.1-2.1-0.7-4.2,1.3-5.8c1.3-1.1,2.8-1.2,4.2-0.4
		C51.8,73.7,51.2,76.1,51.2,78.5z"/>
	<path class="st0" d="M56.6,78.5c-0.1-2.3-0.6-4.6,1.8-6.1c1.3-0.8,2.7-0.8,4,0.1c2.2,1.5,1.7,3.8,1.6,6
		C61.5,78.5,59.1,78.5,56.6,78.5z"/>
	<path class="st0" d="M76.8,78.5c-2.6,0-4.9,0-7.4,0c-0.1-2.2-0.6-4.5,1.5-6c1.3-0.9,2.7-1,4.1-0.2C77.4,73.8,76.8,76.2,76.8,78.5z"
		/>
	<path class="st0" d="M82.7,5.5c1.5,0.1,2.4,0.8,2.4,2.2c0,1.4-0.9,2.3-2.2,2.3c-1.2,0-2.1-0.7-2.2-2.1C80.6,6.5,81.5,5.8,82.7,5.5z
		"/>
	<path class="st0" d="M95.7,99c-1.4-0.3-2.4-0.8-2.3-2.3c0.1-1.4,0.9-2.2,2.3-2.2c1.3,0,2.3,0.9,2.2,2.3
		C97.9,98.2,96.9,98.8,95.7,99z"/>
</g>
</svg>
