<?xml version="1.0" encoding="utf-8"?>
<!-- Generator: Adobe Illustrator 21.1.0, SVG Export Plug-In . SVG Version: 6.00 Build 0)  -->
<svg version="1.1" id="Layer_1" xmlns="http://www.w3.org/2000/svg" xmlns:xlink="http://www.w3.org/1999/xlink" x="0px" y="0px"
	 viewBox="0 0 100 100" style="enable-background:new 0 0 100 100;" xml:space="preserve">
<style type="text/css">
	.st0{fill:#FFFFFF;}
</style>
<g>
	<path class="st0" d="M58.6,3.3C53,4.4,49.3,9,49.3,15c0,12.8,0,25.6,0,38.4c0,0.9-0.1,1.5-1,2c-7.5,5.1-11.2,12.2-10.5,21.2
		c0.7,8.9,5.4,15.3,13.4,19.2c2.6,1.3,5.4,1.9,8.3,2.2h2.5c0.2-0.1,0.3-0.2,0.5-0.2c9.7-0.6,18.2-7.6,20.6-17
		c2.6-9.9-1.3-19.9-9.9-25.5c-0.6-0.4-0.9-0.8-0.9-1.6c0-3.9,0-7.7,0-11.6c0-9.2,0-18.3,0-27.5c0-3.4-1.3-6.3-3.7-8.6
		c-1.9-1.8-4.1-2.7-6.7-3.1h-1.8C59.6,3.2,59.1,3.2,58.6,3.3z M68.3,13.4c0.2,1,0.1,2,0.1,3c0,6.3,0,12.6,0,18.9
		c0,6.8,0,13.7,0,20.5c0,1,0.3,1.5,1.2,2c8.3,4.2,12.3,13.8,9.6,22.7C76.6,89.1,68.1,94.8,59,94c-8.9-0.8-16.2-7.8-17.3-16.7
		c-1-8,2.8-15.6,9.9-19.3c1.3-0.7,1.6-1.4,1.6-2.8c-0.1-13.5-0.1-27,0-40.5c0-4.1,3-7.4,6.9-7.7C64.2,6.6,67.7,9.3,68.3,13.4z"/>
	<path class="st0" d="M43,13.8c-0.4-1-1.2-1.2-2.2-1.2c-3.6,0-7.1,0-10.7,0c-3.6,0-7.1,0-10.7,0c-1.5,0-2.4,0.7-2.4,1.9
		c0,1.2,0.9,1.9,2.4,1.9c4.3,0,8.6,0,12.8,0c2.9,0,5.8,0,8.7,0C42.6,16.4,43.5,15.1,43,13.8z"/>
	<path class="st0" d="M17.1,33.1c0.3,0.9,1,1.4,2.3,1.4c3.5,0,7,0,10.6,0c3.6,0,7.2,0,10.8,0c1.5,0,2.4-0.8,2.4-1.9
		c0-1.2-0.9-1.9-2.3-1.9c-2.7,0-5.4,0-8.1,0c-4.5,0-9,0-13.5,0C17.7,30.6,16.7,31.8,17.1,33.1z"/>
	<path class="st0" d="M40.6,47.7c-3.5,0-7,0-10.5,0c-3.5,0-7,0-10.6,0c-0.5,0-1,0-1.4,0.2c-0.8,0.4-1.2,1.1-1.1,2
		c0.2,1,1,1.5,2.1,1.6c6,0,11.9,0,17.9,0c1.3,0,2.7,0,4,0c1.1,0,1.9-0.9,1.9-1.9c0-1-0.8-1.8-1.9-1.9C41,47.7,40.8,47.7,40.6,47.7z"
		/>
	<path class="st0" d="M41.2,39.2c-4.7,0-9.3,0-14,0c-1.1,0-1.8,0.8-1.9,1.9c0,1,0.7,1.8,1.9,1.9c0.3,0,0.6,0,0.8,0
		c2.1,0,4.1,0,6.2,0c0,0,0,0,0,0c2.3,0,4.6,0,6.8,0c1.2,0,2-0.9,2-1.9C43.1,40,42.3,39.2,41.2,39.2z"/>
	<path class="st0" d="M34.2,22.1c-2.2,0-4.5,0-6.7,0c-1.3,0-2.2,0.7-2.2,1.8c0,1.2,0.8,1.9,2.2,2c4.5,0,8.9,0,13.4,0
		c1.4,0,2.3-0.8,2.3-1.9c0-1.1-0.9-1.9-2.2-1.9C38.7,22.1,36.5,22.1,34.2,22.1z"/>
	<path class="st0" d="M57.6,26.2c-0.2,0.6-0.2,1.3-0.3,1.9c0,11.8,0,23.6,0,35.3c0,0.9-0.2,1.4-1.1,1.9c-4,1.9-6.3,6.4-5.6,10.6
		c0.8,4.9,4.8,8.5,9.7,8.6c4.8,0.2,9.1-3.1,10.2-7.7c1.2-4.9-1.2-9.7-5.7-11.7c-0.6-0.3-0.8-0.6-0.8-1.2c0-6,0-12.1,0-18.1
		c0,0,0,0,0,0c0-3.1,0-6.2,0-9.3c0-3,0-6,0-9c0-1.8-1.2-3.1-2.9-3.4C59.8,23.8,58.1,24.7,57.6,26.2z"/>
</g>
</svg>
