<?xml version="1.0" encoding="utf-8"?>
<!-- Generator: Adobe Illustrator 16.0.0, SVG Export Plug-In . SVG Version: 6.00 Build 0)  -->
<!DOCTYPE svg PUBLIC "-//W3C//DTD SVG 1.1//EN" "http://www.w3.org/Graphics/SVG/1.1/DTD/svg11.dtd">
<svg version="1.1" id="Layer_1" xmlns="http://www.w3.org/2000/svg" xmlns:xlink="http://www.w3.org/1999/xlink" x="0px" y="0px"
	 width="100px" height="100px" viewBox="0 0 100 100" enable-background="new 0 0 100 100" xml:space="preserve">
<g>
	<g>
		<path fill-rule="evenodd" clip-rule="evenodd" fill="#2F2F91" d="M98.205,52.871c0.562,3.03,0.225,5.007-2.53,6.152
			c-2.98,1.241-5.752,3.017-8.782,4.089c-1.719,0.609-3.795,0.497-5.666,0.293c-1.277-0.139-2.55-0.875-3.7-1.556
			c-5.198-3.085-10.293-2.422-15.399,0.216c-2.712,1.399-5.457,2.735-8.189,4.093c-2.459,1.22-4.784,1.051-7.158-0.398
			c-2.369-1.447-4.82-2.793-7.344-3.949c-3.716-1.703-7.498-1.453-11.25,0.078c-2.823,1.153-5.655,2.289-8.521,3.324
			c-5.976,2.159-11.194,0.24-15.773-3.517c-1.211-0.993-1.481-3.132-2.184-4.747c0.281-0.188,0.563-0.379,0.843-0.567
			c0.747,0.389,1.531,0.72,2.236,1.175c5.456,3.529,11.2,4.091,17.231,1.709c2.172-0.857,4.361-1.689,6.474-2.68
			c4.586-2.148,8.907-1.461,13.109,1.018c0.309,0.183,0.615,0.379,0.889,0.609c5.212,4.359,10.589,4.199,16.107,0.613
			c0.601-0.39,1.299-0.626,1.907-1.004c6.036-3.761,12.064-4.604,18.406-0.522c2.967,1.91,6.187,1.889,9.455,0.106
			C91.41,55.747,94.667,54.481,98.205,52.871z"/>
		<path fill-rule="evenodd" clip-rule="evenodd" fill="#2F2F91" d="M1,48.879c5.091,2.1,9.249,3.721,13.32,5.532
			c2.314,1.029,4.356,0.66,6.411-0.524c1.244-0.719,2.495-1.425,3.739-2.145c4.749-2.745,9.545-3.517,14.561-0.603
			c2.093,1.218,4.352,2.146,6.494,3.283c2.78,1.477,5.586,1.861,8.529,0.521c3.271-1.487,6.629-2.8,9.813-4.45
			c4.174-2.161,8.194-2.8,12.545-0.405c6.693,3.681,13.156,2.677,19.339-1.435c0.666-0.444,1.406-0.774,2.117-1.146
			c0.067-0.036,0.178,0.007,0.447,0.028c1.012,1.51,0.695,2.797-0.968,3.602c-3.96,1.919-7.912,3.875-11.992,5.501
			c-1.171,0.467-2.836,0.092-4.151-0.306c-1.88-0.566-3.712-1.386-5.448-2.314c-3.848-2.06-7.635-1.659-11.403,0.071
			c-3.43,1.574-6.833,3.206-10.202,4.903c-2.659,1.34-5.12,1.195-7.649-0.382c-2.204-1.374-4.506-2.604-6.831-3.767
			c-3.706-1.854-7.47-1.563-11.229-0.075c-2.84,1.125-5.707,2.186-8.541,3.327c-6.666,2.683-13.152-0.674-17.545-4.578
			C1.427,52.693,1.502,50.739,1,48.879z"/>
		<path fill-rule="evenodd" clip-rule="evenodd" fill="#2F2F91" d="M49.97,36.887c-14.026,0-28.053,0.046-42.079-0.068
			c-1.522-0.012-4.229,1.36-4.471-1.289c-0.28-3.065,2.554-2.568,4.556-2.569c17.892-0.01,35.784,0.005,53.677,0.009
			c10.16,0.003,20.321-0.003,30.48-0.003c0.809,0,1.618,0.022,2.427,0.028c1.751,0.012,2.54,1.142,2.268,2.609
			c-0.104,0.557-1.525,1.228-2.354,1.236c-8.181,0.089-16.363,0.05-24.544,0.048C63.276,36.888,56.624,36.889,49.97,36.887z"/>
		<path fill-rule="evenodd" clip-rule="evenodd" fill="#2F2F91" d="M39.663,78.341c-2.063,0-4.143-0.167-6.184,0.044
			c-2.303,0.237-3.591-0.786-4.269-2.782c-1.007-2.968-2.039-5.937-2.799-8.971c-0.18-0.717,0.443-2.124,1.095-2.479
			c4.313-2.345,8.74-2.396,13.095-0.018c2.438,1.331,4.863,2.689,7.217,4.161c0.582,0.366,0.874,1.208,1.267,1.852
			c0.083,0.132,0.03,0.352,0.024,0.531c-0.238,9.221,1.53,7.446-7.293,7.646c-0.717,0.017-1.435,0.002-2.153,0.002
			C39.663,78.332,39.663,78.337,39.663,78.341z"/>
		<path fill-rule="evenodd" clip-rule="evenodd" fill="#2F2F91" d="M71.37,78.337c1.576-5.389,2.972-10.16,4.41-15.075
			c3.688,0.731,6.836,3.997,10.966,1.895c3.305-1.684,6.749-3.091,10.559-4.814c-0.679,5.362-2.977,9.582-5.075,13.891
			c-1.539,3.159-3.665,4.563-7.396,4.202C80.509,78.017,76.111,78.337,71.37,78.337z"/>
		<path fill-rule="evenodd" clip-rule="evenodd" fill="#2F2F91" d="M60.094,78.358c-2.155,0-4.312,0.021-6.468-0.014
			c-0.617-0.009-1.328-0.017-1.831-0.309c-1.435-0.836-1.042-8.703,0.469-9.396c4.725-2.172,9.475-4.286,14.221-6.404
			c0.571-0.257,1.177-0.449,1.783-0.605c4.325-1.119,5.894,0.221,4.828,4.426c-0.878,3.469-2.145,6.84-3.244,10.252
			c-0.472,1.466-1.4,2.143-3.022,2.062c-2.239-0.113-4.489-0.029-6.735-0.029C60.094,78.348,60.094,78.353,60.094,78.358z"/>
		<path fill-rule="evenodd" clip-rule="evenodd" fill="#2F2F91" d="M50.077,43.72c-15.096-0.003-30.192-0.003-45.287-0.003
			c-0.45,0-0.973,0.138-1.332-0.044c-0.618-0.315-1.132-0.832-1.69-1.264c0.553-0.48,1.074-1.324,1.665-1.376
			c2.141-0.19,4.305-0.136,6.461-0.137c28.299-0.009,56.599-0.014,84.9-0.018c0.54,0,1.157-0.156,1.599,0.055
			c0.709,0.338,1.302,0.922,1.942,1.402c-0.63,0.451-1.215,1.18-1.9,1.293c-1.314,0.217-2.687,0.093-4.034,0.093
			C78.292,43.724,64.186,43.723,50.077,43.72z"/>
		<path fill-rule="evenodd" clip-rule="evenodd" fill="#2F2F91" d="M89.179,20.127c-26.02,0-52.04,0-78.235,0
			c0.442-2.112,1.423-3.11,3.5-3.108c23.806,0.024,47.611-0.021,71.416,0.095c1.252,0.006,2.499,1.292,3.747,1.98
			C89.465,19.438,89.321,19.783,89.179,20.127z"/>
		<path fill-rule="evenodd" clip-rule="evenodd" fill="#2F2F91" d="M58.32,97.719c2.241-2.841,4.558-5.541,6.597-8.435
			c1.649-2.338,2.911-4.946,4.465-7.356c0.479-0.742,1.338-1.733,2.048-1.755c4.934-0.149,9.874-0.082,14.813-0.049
			c0.299,0.001,0.596,0.306,0.883,0.463C84.182,87.727,66.13,98.471,58.32,97.719z"/>
		<path fill-rule="evenodd" clip-rule="evenodd" fill="#2F2F91" d="M41.575,97.743c-8.148,0.481-25.773-10.157-28.747-17.703
			c5.189,0,10.264-0.047,15.334,0.063c0.615,0.015,1.346,0.794,1.793,1.393c3.847,5.143,7.642,10.322,11.44,15.503
			C41.532,97.186,41.516,97.483,41.575,97.743z"/>
		<path fill-rule="evenodd" clip-rule="evenodd" fill="#2F2F91" d="M4.625,64.754c1.522,0.69,3.002,1.509,4.577,2.049
			c4.053,1.387,8.175,1.362,12.127-0.254c2.393-0.979,3.108-0.201,3.672,2.061c0.771,3.092,1.958,6.079,3.173,9.731
			c-2.088,0-3.743,0-5.396,0c-2.965,0.003-5.946-0.184-8.891,0.065c-2.553,0.215-4.105-0.781-5.154-2.942
			c-1.628-3.356-3.267-6.707-4.902-10.06C4.096,65.188,4.36,64.971,4.625,64.754z"/>
		<path fill-rule="evenodd" clip-rule="evenodd" fill="#2F2F91" d="M32.144,80.049c5.177,0,10.355-0.068,15.526,0.104
			c0.519,0.019,1.389,1.487,1.415,2.304c0.141,4.577,0.12,9.161,0.034,13.74c-0.016,0.866-0.438,2.35-0.906,2.45
			c-0.9,0.193-2.203-0.121-2.924-0.723c-1.992-1.66-3.985-3.408-5.587-5.43c-2.912-3.675-5.541-7.573-8.288-11.377
			C31.658,80.762,31.901,80.405,32.144,80.049z"/>
		<path fill-rule="evenodd" clip-rule="evenodd" fill="#2F2F91" d="M67.999,80.79c-3.558,6.735-7.604,12.722-13.373,17.343
			c-2.085,1.67-3.63,0.845-3.649-1.753c-0.038-4.767-0.035-9.535,0.119-14.296c0.022-0.694,0.965-1.929,1.507-1.942
			c4.669-0.125,9.344-0.035,14.018,0.023C66.937,80.169,67.25,80.44,67.999,80.79z"/>
		<path fill-rule="evenodd" clip-rule="evenodd" fill="#2F2F91" d="M70.481,4.252c-13.576,0-27.153,0-40.729,0
			c-0.084-0.242-0.169-0.485-0.254-0.728c2.338-0.735,4.66-2.039,7.017-2.105c9.071-0.256,18.156-0.259,27.229-0.026
			c2.328,0.061,4.624,1.333,6.937,2.049C70.613,3.712,70.548,3.982,70.481,4.252z"/>
		<g>
			<path fill="#2F2F91" d="M36.326,29.827H34.96l2.209-6.199h1.497l2.184,6.199h-1.408l-0.396-1.278h-2.29L36.326,29.827z
				 M37.102,27.479h1.581l-0.771-2.454h-0.017L37.102,27.479z"/>
			<path fill="#2F2F91" d="M42.428,27.917c0,0.307,0.113,0.55,0.339,0.731c0.226,0.182,0.55,0.272,0.972,0.272
				c0.422,0,0.743-0.068,0.964-0.205c0.221-0.136,0.331-0.336,0.331-0.601c0-0.157-0.057-0.294-0.171-0.409
				s-0.385-0.224-0.812-0.325l-1.054-0.245c-0.666-0.157-1.119-0.372-1.36-0.643c-0.24-0.271-0.36-0.646-0.36-1.124
				c0-0.56,0.199-1.017,0.597-1.373s0.995-0.533,1.79-0.533c0.79,0,1.389,0.199,1.798,0.599c0.409,0.399,0.615,0.867,0.618,1.404
				h-1.244c-0.028-0.304-0.146-0.535-0.354-0.694s-0.513-0.238-0.915-0.238c-0.323,0-0.584,0.067-0.782,0.2
				c-0.198,0.134-0.297,0.314-0.297,0.542c0,0.157,0.043,0.288,0.13,0.392c0.087,0.104,0.228,0.18,0.422,0.228l1.657,0.409
				c0.599,0.146,1.012,0.356,1.24,0.63c0.228,0.274,0.341,0.616,0.341,1.027c0,0.675-0.234,1.181-0.702,1.52
				c-0.468,0.339-1.048,0.508-1.739,0.508c-0.894,0-1.56-0.19-1.997-0.571s-0.656-0.882-0.656-1.503H42.428z"/>
			<path fill="#2F2F91" d="M48.217,27.917c0,0.307,0.113,0.55,0.339,0.731c0.226,0.182,0.55,0.272,0.972,0.272
				c0.422,0,0.743-0.068,0.964-0.205c0.221-0.136,0.33-0.336,0.33-0.601c0-0.157-0.057-0.294-0.17-0.409s-0.385-0.224-0.812-0.325
				l-1.054-0.245c-0.666-0.157-1.119-0.372-1.36-0.643c-0.24-0.271-0.36-0.646-0.36-1.124c0-0.56,0.199-1.017,0.597-1.373
				s0.995-0.533,1.79-0.533c0.79,0,1.389,0.199,1.799,0.599c0.408,0.399,0.613,0.867,0.617,1.404h-1.244
				c-0.028-0.304-0.146-0.535-0.354-0.694s-0.513-0.238-0.915-0.238c-0.323,0-0.584,0.067-0.782,0.2
				c-0.198,0.134-0.297,0.314-0.297,0.542c0,0.157,0.043,0.288,0.13,0.392c0.087,0.104,0.228,0.18,0.422,0.228l1.658,0.409
				c0.598,0.146,1.012,0.356,1.238,0.63c0.229,0.274,0.342,0.616,0.342,1.027c0,0.675-0.234,1.181-0.701,1.52
				c-0.469,0.339-1.049,0.508-1.74,0.508c-0.894,0-1.56-0.19-1.997-0.571s-0.656-0.882-0.656-1.503H48.217z"/>
			<path fill="#2F2F91" d="M53.792,29.827h-1.366l2.21-6.199h1.496l2.185,6.199h-1.408l-0.396-1.278h-2.29L53.792,29.827z
				 M54.567,27.479h1.582l-0.772-2.454H55.36L54.567,27.479z"/>
			<path fill="#2F2F91" d="M65.067,29.827h-1.21V25.64l0.017-0.995h-0.033l-1.16,5.182h-1.27l-1.13-5.182h-0.029l0.013,0.995v4.187
				h-1.21v-6.199h1.893l1.118,4.887h0.025l1.101-4.887h1.876V29.827z"/>
		</g>
	</g>
</g>
</svg>
