<?xml version="1.0" encoding="utf-8"?>
<!-- Generator: Adobe Illustrator 21.1.0, SVG Export Plug-In . SVG Version: 6.00 Build 0)  -->
<svg version="1.1" id="Layer_1" xmlns="http://www.w3.org/2000/svg" xmlns:xlink="http://www.w3.org/1999/xlink" x="0px" y="0px"
	 viewBox="0 0 100 100" style="enable-background:new 0 0 100 100;" xml:space="preserve">
<style type="text/css">
	.st0{fill:#FFFFFF;}
</style>
<g>
	<g>
		<path class="st0" d="M98.2,52.9c0.6,3,0.2,5-2.5,6.2c-3,1.2-5.8,3-8.8,4.1c-1.7,0.6-3.8,0.5-5.7,0.3c-1.3-0.1-2.6-0.9-3.7-1.6
			c-5.2-3.1-10.3-2.4-15.4,0.2c-2.7,1.4-5.5,2.7-8.2,4.1c-2.5,1.2-4.8,1.1-7.2-0.4c-2.4-1.4-4.8-2.8-7.3-3.9
			c-3.7-1.7-7.5-1.5-11.3,0.1c-2.8,1.2-5.7,2.3-8.5,3.3c-6,2.2-11.2,0.2-15.8-3.5c-1.2-1-1.5-3.1-2.2-4.7c0.3-0.2,0.6-0.4,0.8-0.6
			c0.7,0.4,1.5,0.7,2.2,1.2c5.5,3.5,11.2,4.1,17.2,1.7c2.2-0.9,4.4-1.7,6.5-2.7c4.6-2.1,8.9-1.5,13.1,1c0.3,0.2,0.6,0.4,0.9,0.6
			c5.2,4.4,10.6,4.2,16.1,0.6c0.6-0.4,1.3-0.6,1.9-1c6-3.8,12.1-4.6,18.4-0.5c3,1.9,6.2,1.9,9.5,0.1C91.4,55.7,94.7,54.5,98.2,52.9z
			"/>
		<path class="st0" d="M1,48.9c5.1,2.1,9.2,3.7,13.3,5.5c2.3,1,4.4,0.7,6.4-0.5c1.2-0.7,2.5-1.4,3.7-2.1C29.2,49,34,48.2,39,51.1
			c2.1,1.2,4.4,2.1,6.5,3.3c2.8,1.5,5.6,1.9,8.5,0.5c3.3-1.5,6.6-2.8,9.8-4.5c4.2-2.2,8.2-2.8,12.5-0.4c6.7,3.7,13.2,2.7,19.3-1.4
			c0.7-0.4,1.4-0.8,2.1-1.1c0.1,0,0.2,0,0.4,0c1,1.5,0.7,2.8-1,3.6c-4,1.9-7.9,3.9-12,5.5c-1.2,0.5-2.8,0.1-4.2-0.3
			c-1.9-0.6-3.7-1.4-5.4-2.3c-3.8-2.1-7.6-1.7-11.4,0.1c-3.4,1.6-6.8,3.2-10.2,4.9c-2.7,1.3-5.1,1.2-7.6-0.4
			c-2.2-1.4-4.5-2.6-6.8-3.8c-3.7-1.9-7.5-1.6-11.2-0.1c-2.8,1.1-5.7,2.2-8.5,3.3c-6.7,2.7-13.2-0.7-17.5-4.6
			C1.4,52.7,1.5,50.7,1,48.9z"/>
		<path class="st0" d="M50,36.9c-14,0-28.1,0-42.1-0.1c-1.5,0-4.2,1.4-4.5-1.3C3.1,32.5,6,33,8,33c17.9,0,35.8,0,53.7,0
			c10.2,0,20.3,0,30.5,0c0.8,0,1.6,0,2.4,0c1.8,0,2.5,1.1,2.3,2.6c-0.1,0.6-1.5,1.2-2.4,1.2c-8.2,0.1-16.4,0-24.5,0
			C63.3,36.9,56.6,36.9,50,36.9z"/>
		<path class="st0" d="M39.7,78.3c-2.1,0-4.1-0.2-6.2,0c-2.3,0.2-3.6-0.8-4.3-2.8c-1-3-2-5.9-2.8-9c-0.2-0.7,0.4-2.1,1.1-2.5
			c4.3-2.3,8.7-2.4,13.1,0c2.4,1.3,4.9,2.7,7.2,4.2c0.6,0.4,0.9,1.2,1.3,1.9c0.1,0.1,0,0.4,0,0.5c-0.2,9.2,1.5,7.4-7.3,7.6
			C41.1,78.3,40.4,78.3,39.7,78.3C39.7,78.3,39.7,78.3,39.7,78.3z"/>
		<path class="st0" d="M71.4,78.3c1.6-5.4,3-10.2,4.4-15.1c3.7,0.7,6.8,4,11,1.9c3.3-1.7,6.7-3.1,10.6-4.8c-0.7,5.4-3,9.6-5.1,13.9
			c-1.5,3.2-3.7,4.6-7.4,4.2C80.5,78,76.1,78.3,71.4,78.3z"/>
		<path class="st0" d="M60.1,78.4c-2.2,0-4.3,0-6.5,0c-0.6,0-1.3,0-1.8-0.3c-1.4-0.8-1-8.7,0.5-9.4c4.7-2.2,9.5-4.3,14.2-6.4
			c0.6-0.3,1.2-0.4,1.8-0.6c4.3-1.1,5.9,0.2,4.8,4.4c-0.9,3.5-2.1,6.8-3.2,10.3c-0.5,1.5-1.4,2.1-3,2.1
			C64.6,78.3,62.3,78.3,60.1,78.4C60.1,78.3,60.1,78.4,60.1,78.4z"/>
		<path class="st0" d="M50.1,43.7c-15.1,0-30.2,0-45.3,0c-0.4,0-1,0.1-1.3,0c-0.6-0.3-1.1-0.8-1.7-1.3c0.6-0.5,1.1-1.3,1.7-1.4
			c2.1-0.2,4.3-0.1,6.5-0.1c28.3,0,56.6,0,84.9,0c0.5,0,1.2-0.2,1.6,0.1c0.7,0.3,1.3,0.9,1.9,1.4c-0.6,0.5-1.2,1.2-1.9,1.3
			c-1.3,0.2-2.7,0.1-4,0.1C78.3,43.7,64.2,43.7,50.1,43.7z"/>
		<path class="st0" d="M89.2,20.1c-26,0-52,0-78.2,0c0.4-2.1,1.4-3.1,3.5-3.1c23.8,0,47.6,0,71.4,0.1c1.3,0,2.5,1.3,3.7,2
			C89.5,19.4,89.3,19.8,89.2,20.1z"/>
		<path class="st0" d="M58.3,97.7c2.2-2.8,4.6-5.5,6.6-8.4c1.6-2.3,2.9-4.9,4.5-7.4c0.5-0.7,1.3-1.7,2-1.8c4.9-0.1,9.9-0.1,14.8,0
			c0.3,0,0.6,0.3,0.9,0.5C84.2,87.7,66.1,98.5,58.3,97.7z"/>
		<path class="st0" d="M41.6,97.7C33.4,98.2,15.8,87.6,12.8,80c5.2,0,10.3,0,15.3,0.1c0.6,0,1.3,0.8,1.8,1.4
			c3.8,5.1,7.6,10.3,11.4,15.5C41.5,97.2,41.5,97.5,41.6,97.7z"/>
		<path class="st0" d="M4.6,64.8c1.5,0.7,3,1.5,4.6,2c4.1,1.4,8.2,1.4,12.1-0.3c2.4-1,3.1-0.2,3.7,2.1c0.8,3.1,2,6.1,3.2,9.7
			c-2.1,0-3.7,0-5.4,0c-3,0-5.9-0.2-8.9,0.1c-2.6,0.2-4.1-0.8-5.2-2.9c-1.6-3.4-3.3-6.7-4.9-10.1C4.1,65.2,4.4,65,4.6,64.8z"/>
		<path class="st0" d="M32.1,80c5.2,0,10.4-0.1,15.5,0.1c0.5,0,1.4,1.5,1.4,2.3c0.1,4.6,0.1,9.2,0,13.7c0,0.9-0.4,2.3-0.9,2.4
			c-0.9,0.2-2.2-0.1-2.9-0.7c-2-1.7-4-3.4-5.6-5.4c-2.9-3.7-5.5-7.6-8.3-11.4C31.7,80.8,31.9,80.4,32.1,80z"/>
		<path class="st0" d="M68,80.8c-3.6,6.7-7.6,12.7-13.4,17.3C52.5,99.8,51,99,51,96.4c0-4.8,0-9.5,0.1-14.3c0-0.7,1-1.9,1.5-1.9
			c4.7-0.1,9.3,0,14,0C66.9,80.2,67.3,80.4,68,80.8z"/>
		<path class="st0" d="M70.5,4.3c-13.6,0-27.2,0-40.7,0c-0.1-0.2-0.2-0.5-0.3-0.7c2.3-0.7,4.7-2,7-2.1c9.1-0.3,18.2-0.3,27.2,0
			c2.3,0.1,4.6,1.3,6.9,2C70.6,3.7,70.5,4,70.5,4.3z"/>
		<g>
			<path class="st0" d="M36.3,29.8H35l2.2-6.2h1.5l2.2,6.2h-1.4L39,28.5h-2.3L36.3,29.8z M37.1,27.5h1.6L37.9,25h0L37.1,27.5z"/>
			<path class="st0" d="M42.4,27.9c0,0.3,0.1,0.5,0.3,0.7c0.2,0.2,0.5,0.3,1,0.3s0.7-0.1,1-0.2c0.2-0.1,0.3-0.3,0.3-0.6
				c0-0.2-0.1-0.3-0.2-0.4s-0.4-0.2-0.8-0.3L43,27.1c-0.7-0.2-1.1-0.4-1.4-0.6c-0.2-0.3-0.4-0.6-0.4-1.1c0-0.6,0.2-1,0.6-1.4
				s1-0.5,1.8-0.5c0.8,0,1.4,0.2,1.8,0.6c0.4,0.4,0.6,0.9,0.6,1.4h-1.2c0-0.3-0.1-0.5-0.4-0.7s-0.5-0.2-0.9-0.2
				c-0.3,0-0.6,0.1-0.8,0.2c-0.2,0.1-0.3,0.3-0.3,0.5c0,0.2,0,0.3,0.1,0.4s0.2,0.2,0.4,0.2l1.7,0.4c0.6,0.1,1,0.4,1.2,0.6
				c0.2,0.3,0.3,0.6,0.3,1c0,0.7-0.2,1.2-0.7,1.5s-1,0.5-1.7,0.5c-0.9,0-1.6-0.2-2-0.6s-0.7-0.9-0.7-1.5L42.4,27.9L42.4,27.9z"/>
			<path class="st0" d="M48.2,27.9c0,0.3,0.1,0.5,0.3,0.7c0.2,0.2,0.5,0.3,1,0.3s0.7-0.1,1-0.2c0.2-0.1,0.3-0.3,0.3-0.6
				c0-0.2-0.1-0.3-0.2-0.4s-0.4-0.2-0.8-0.3l-1.1-0.2c-0.7-0.2-1.1-0.4-1.4-0.6c-0.2-0.3-0.4-0.6-0.4-1.1c0-0.6,0.2-1,0.6-1.4
				s1-0.5,1.8-0.5c0.8,0,1.4,0.2,1.8,0.6c0.4,0.4,0.6,0.9,0.6,1.4h-1.2c0-0.3-0.1-0.5-0.4-0.7s-0.5-0.2-0.9-0.2
				c-0.3,0-0.6,0.1-0.8,0.2c-0.2,0.1-0.3,0.3-0.3,0.5c0,0.2,0,0.3,0.1,0.4s0.2,0.2,0.4,0.2l1.7,0.4c0.6,0.1,1,0.4,1.2,0.6
				c0.2,0.3,0.3,0.6,0.3,1c0,0.7-0.2,1.2-0.7,1.5c-0.5,0.3-1,0.5-1.7,0.5c-0.9,0-1.6-0.2-2-0.6S47,28.5,47,27.9L48.2,27.9L48.2,27.9
				z"/>
			<path class="st0" d="M53.8,29.8h-1.4l2.2-6.2h1.5l2.2,6.2h-1.4l-0.4-1.3h-2.3L53.8,29.8z M54.6,27.5h1.6L55.4,25h0L54.6,27.5z"/>
			<path class="st0" d="M65.1,29.8h-1.2v-4.2l0-1h0l-1.2,5.2h-1.3l-1.1-5.2h0l0,1v4.2h-1.2v-6.2h1.9l1.1,4.9h0l1.1-4.9h1.9
				L65.1,29.8L65.1,29.8z"/>
		</g>
	</g>
</g>
</svg>
