<?xml version="1.0" encoding="utf-8"?>
<!-- Generator: Adobe Illustrator 16.0.0, SVG Export Plug-In . SVG Version: 6.00 Build 0)  -->
<!DOCTYPE svg PUBLIC "-//W3C//DTD SVG 1.1//EN" "http://www.w3.org/Graphics/SVG/1.1/DTD/svg11.dtd">
<svg version="1.1" id="Layer_1" xmlns="http://www.w3.org/2000/svg" xmlns:xlink="http://www.w3.org/1999/xlink" x="0px" y="0px"
	 width="1172.941px" height="313.484px" viewBox="0 0 1172.941 313.484" enable-background="new 0 0 1172.941 313.484"
	 xml:space="preserve">
<g>
	<g>
		<path fill-rule="evenodd" clip-rule="evenodd" fill="#C0DCF6" d="M276.452,223.646c-1.28-1.502-1.13-3.419-1.28-5.161
			c-0.209-2.429,0.006-4.894,0.041-7.343c0.912,0.056,1.822,0.16,2.733,0.16c47.884,0.008,95.768,0.009,143.651,0.005
			c17.207-0.001,34.415-0.016,51.621-0.023c0.257,3.948-0.035,7.925,0.544,11.858c-0.451,3.553-0.901,7.104-1.352,10.654
			c-20.348,0.008-40.694,0.014-61.042,0.022c-15.397-0.009-30.793-0.018-46.19-0.026c-20.824,0.018-41.649,0.032-62.473,0.049
			c-0.853-3.397-1.615-6.823-2.586-10.187c-0.884-3.061-3.381-4.473-6.469-3.896c-1.1,0.208-2.191,0.469-3.286,0.703
			C285.711,221.455,281.207,223.099,276.452,223.646z M387.759,226.193c3.099,0.002,5.122-2.048,5.087-5.156
			c-0.028-2.55-2.463-4.953-5.047-4.981c-2.654-0.028-5.076,2.414-5.116,5.158C382.642,224.078,384.796,226.191,387.759,226.193z"/>
		<path fill-rule="evenodd" clip-rule="evenodd" fill="#234C82" d="M473.218,211.283c-17.206,0.008-34.414,0.022-51.621,0.023
			c-47.884,0.004-95.768,0.003-143.651-0.005c-0.911,0-1.822-0.104-2.733-0.16c0-38.805-0.001-77.608,0.004-116.413
			c0.001-7.384,4.025-12.879,10.553-14.478c1.593-0.39,3.214-0.397,4.838-0.397c21.166,0,42.331,0.001,63.497-0.007
			c0.769,0,1.538-0.098,2.307-0.151c1.317,0.036,2.635,0.071,3.953,0.106c0.234,0.045,0.468,0.09,0.703,0.135
			c2.14,0.39,4.284,0.763,6.421,1.172c9.722,1.861,19.44,3.741,29.163,5.595c2.634,0.502,4.118-0.521,4.739-3.196
			c0.27-1.162,0.507-2.332,0.76-3.498c1.108-0.027,2.216-0.054,3.323-0.082c0.88,3.131,1.758,6.264,2.637,9.396
			c-40.515,0.004-81.029,0.021-121.543-0.027c-1.75-0.002-2.209,0.413-2.206,2.188c0.056,36.491,0.059,72.98-0.005,109.472
			c-0.003,1.915,0.53,2.296,2.35,2.294c38.537-0.056,77.075-0.039,115.613-0.042c22.656-0.004,45.313-0.017,67.97-0.024
			C473.385,205.119,473.418,208.158,473.218,211.283z"/>
		<path fill-rule="evenodd" clip-rule="evenodd" fill="#EAEAEA" d="M401.195,78.23c-0.253,1.166-0.491,2.335-0.76,3.497
			c-0.621,2.675-2.104,3.698-4.738,3.195c-9.723-1.853-19.441-3.732-29.163-5.594c-2.137-0.409-4.282-0.782-6.422-1.172
			c-0.234-0.044-0.469-0.089-0.703-0.134c-1.317-0.035-2.634-0.071-3.953-0.106c-0.043-0.587-0.372-0.807-0.946-0.917
			c-12.605-2.389-25.207-4.801-37.811-7.199c-2.697-0.514-3.947-2.377-3.404-5.033c0.534-2.61,1.024-5.229,1.5-7.85
			c0.597-3.285,2.027-4.306,5.248-3.688c13.91,2.669,27.818,5.341,41.729,7.998c0.618,0.118,1.263,0.089,1.895,0.128
			c2.704,0.905,5.499,1.355,8.321,1.668c3.926,0.935,7.848,1.9,11.9,2.13c-1.488,2.258-2.966,4.524-4.469,6.773
			c-0.565,0.846-1.091,1.658-0.111,2.555c-1.672,0.598-2.872,1.604-2.453,3.556c0.31,1.446,1.367,2.468,2.867,2.157
			c1.919-0.397,2.698-1.837,2.369-3.804c1.137,0.502,1.632-0.247,2.18-1.046c1.986-2.899,4.013-5.772,6.024-8.655
			c1.906,0.312,3.813,0.625,5.72,0.937c2.026,0.644,4.217,0.837,5.992,2.175c0.032,0.396,0.064,0.794,0.096,1.191
			C402.353,73.474,401.433,75.809,401.195,78.23z M392.486,78.629c1.654-0.993,1.692,0.755,2.38,1.472
			c0.34,0.354,0.441,1.236,1.221,0.742c0.734-0.466,0.13-0.988-0.1-1.447c-0.469-0.937-1.48-1.619-0.539-2.977
			c1.159-1.673,0.68-3.42-0.751-4.757c-1.372-1.282-3.041-1.445-4.68-0.514c-1.657,0.94-2.392,3.021-1.74,4.766
			C388.983,77.807,390.526,78.487,392.486,78.629z"/>
		<path fill-rule="evenodd" clip-rule="evenodd" fill="#254D83" d="M412.733,79.684c0.839,0.056,1.678,0.159,2.517,0.159
			c23.136,0.009,46.273,0.199,69.406-0.084c9.655-0.118,15.842,6.419,15.79,15.718c-0.193,35.62-0.078,71.241-0.073,106.861
			c0,0.914,0.051,1.829,0.079,2.744c-0.925,1.234-1.83,2.484-2.785,3.694c-0.261,0.331-0.567,1.042-1.122,0.526
			c-2.234-2.077-4.987-3.595-6.718-6.215c2.692,0.17,2.698,0.17,2.698-2.454c0.001-36.337-0.014-72.675,0.043-109.012
			c0.003-1.855-0.446-2.33-2.317-2.325c-24.484,0.069-48.967,0.045-73.451,0.048c-0.634,0-1.268,0.046-1.901,0.071
			C414.177,86.171,413.456,82.928,412.733,79.684z"/>
		<path fill-rule="evenodd" clip-rule="evenodd" fill="#01BFCC" d="M538.484,194.92c-5.234-0.676-9.777-2.651-13.059-6.975
			c-4.842-6.381-4.932-14.918,0.022-21.205c2.441-3.101,2.717-6.08,1.048-9.6c-2.451-5.165-1.977-10.284,1.626-14.708
			c2.337-2.868,2.674-5.617,1.62-9.012c-1.809-5.822,1.651-11.563,7.454-12.779c7.366-1.544,13.856,5.165,11.735,12.387
			c-1.091,3.715-0.744,6.639,1.771,9.778c3.39,4.23,3.754,9.252,1.414,14.167c-1.711,3.594-1.472,6.58,1.007,9.782
			c4.135,5.339,4.876,11.394,2.14,17.564c-2.921,6.584-8.302,9.919-15.424,10.524c-0.007-4.8,0.272-9.623-0.1-14.395
			c-0.357-4.566,0.532-8.311,4.478-10.975c0.115-0.078,0.21-0.191,0.299-0.299c0.384-0.467,1.155-0.939,0.568-1.578
			c-0.617-0.672-1.113,0.092-1.572,0.477c-1.197,1.006-2.051,2.419-3.689,3.238c0-4.6,0.014-8.971-0.012-13.344
			c-0.006-0.871,0.409-1.451,0.983-2.011c1.011-0.986,2.031-1.966,2.984-3.004c0.475-0.518,1.603-1.079,0.852-1.828
			c-0.639-0.636-1.108,0.503-1.6,0.904c-0.599,0.489-1.094,1.101-1.666,1.625c-0.341,0.314-0.624,0.912-1.192,0.668
			c-0.572-0.245-0.337-0.87-0.34-1.33c-0.021-3.106-0.007-6.212-0.021-9.318c-0.003-0.466,0.12-1.145-0.546-1.195
			c-0.873-0.067-0.704,0.717-0.708,1.229c-0.025,2.611-0.014,5.223-0.014,7.835c-0.001,3.707-0.001,7.412-0.001,11.119
			c-0.186,0.113-0.373,0.225-0.558,0.336c-1.132-1.222-2.252-2.453-3.402-3.655c-0.342-0.358-0.813-0.72-1.28-0.257
			c-0.468,0.465-0.103,0.922,0.246,1.28c1.034,1.063,2.117,2.079,3.125,3.164c0.702,0.756,1.822,1.286,1.835,2.481
			c0.047,4.164,0.049,8.329,0.014,12.494c-0.011,1.325-0.681,0.958-1.298,0.365c-0.916-0.881-1.804-1.79-2.717-2.674
			c-0.316-0.308-0.743-0.549-1.132-0.245c-0.531,0.416-0.245,0.906,0.111,1.272c1.229,1.268,2.466,2.526,3.733,3.754
			c0.78,0.757,1.377,1.499,1.349,2.719C538.479,187.438,538.504,191.179,538.484,194.92z"/>
		<path fill-rule="evenodd" clip-rule="evenodd" fill="#FDFEFE" d="M402.151,80.011c-0.252,1.166-0.49,2.335-0.76,3.498
			c-0.621,2.675-2.105,3.698-4.739,3.196c-9.723-1.854-19.441-3.734-29.163-5.595c-2.137-0.41-4.281-0.783-6.421-1.172
			c-0.235-0.045-0.469-0.09-0.703-0.135c-1.318-0.035-2.635-0.07-3.953-0.106c-0.043-0.586-0.373-0.807-0.946-0.916
			c-12.606-2.389-25.208-4.801-37.811-7.2c-2.697-0.513-3.948-2.376-3.404-5.032c0.533-2.61,1.024-5.229,1.5-7.85
			c0.598-3.285,2.027-4.306,5.248-3.688c13.909,2.669,27.818,5.341,41.729,7.998c0.618,0.118,1.263,0.088,1.895,0.128
			c2.703,0.905,5.498,1.355,8.32,1.668c3.927,0.936,7.848,1.9,11.901,2.13c-1.488,2.259-2.966,4.524-4.469,6.773
			c-0.564,0.846-1.091,1.658-0.111,2.555c-1.672,0.599-2.872,1.604-2.454,3.556c0.311,1.446,1.368,2.469,2.868,2.158
			c1.92-0.398,2.699-1.837,2.369-3.805c1.137,0.503,1.631-0.247,2.179-1.045c1.987-2.899,4.013-5.772,6.024-8.655
			c1.907,0.313,3.813,0.625,5.719,0.937c2.027,0.644,4.217,0.837,5.994,2.175c0.031,0.397,0.063,0.794,0.096,1.191
			C403.309,75.255,402.389,77.59,402.151,80.011z M393.443,80.41c1.654-0.993,1.691,0.755,2.379,1.473
			c0.34,0.354,0.442,1.235,1.222,0.741c0.734-0.465,0.13-0.987-0.1-1.446c-0.469-0.936-1.481-1.619-0.54-2.977
			c1.16-1.673,0.681-3.42-0.75-4.757c-1.371-1.282-3.042-1.445-4.68-0.515c-1.658,0.94-2.392,3.021-1.741,4.765
			C389.939,79.588,391.482,80.268,393.443,80.41z"/>
		<path fill-rule="evenodd" clip-rule="evenodd" fill="#84B4FD" d="M276.452,223.646c4.754-0.547,9.259-2.19,13.912-3.184
			c1.095-0.234,2.186-0.495,3.286-0.703c3.088-0.577,5.585,0.835,6.469,3.896c0.971,3.363,1.733,6.789,2.586,10.187
			c0.702,2.797,1.418,5.591,2.105,8.393c1.117,4.554-0.378,6.931-4.899,8.124c-5.297,1.397-10.685,2.449-15.901,4.155
			c-0.75,0.13-1.503,0.25-2.25,0.397c-3.155,0.623-5.292-0.451-6.792-3.423c2.971-2.133,6.256-3.738,9.417-5.548
			c1.173-0.672,1.525-1.293,0.738-2.417c0.466-0.502,0.982-0.344,1.558-0.199c1.639,0.409,2.728-0.342,3.37-1.802
			c0.581-1.323,0.049-2.467-1.03-3.124c-1.315-0.8-2.732-0.67-3.79,0.619c-0.563,0.689-1.143,1.247-2.088,1.247
			c-0.631-1.014-1.196-0.184-1.762,0.078c-2.851,1.321-5.219,3.568-8.346,4.364c-1.024-4.27-2.012-8.55-3.094-12.805
			c-0.36-1.418-0.401-2.748,0.191-4.085c0.936-1.839,2.368-3,4.436-3.383C275.23,224.313,275.934,224.167,276.452,223.646z"/>
		<path fill-rule="evenodd" clip-rule="evenodd" fill="#EDEDED" d="M526.042,57.595c-11.216,0-22.431,0.001-33.646-0.002
			c-0.979,0-2.18,0.241-2.726-0.713c-0.56-0.98,0.378-1.859,0.873-2.656c2.337-3.779,6.536-5.282,11.04-3.888
			c1.275,0.395,1.947,0.224,2.784-0.916c5.571-7.581,16.221-8.284,22.917-1.604c0.299,0.299,0.617,0.583,0.894,0.9
			c0.79,0.902,1.15,0.818,1.704-0.35c3.045-6.427,10.247-8.791,16.346-5.308c2.839,1.62,4.848,4.114,5.623,7.352
			c0.335,1.403,0.986,1.699,2.32,1.725c2.98,0.055,5.395,1.429,7.217,3.771c0.298,0.382,0.978,0.823,0.542,1.442
			c-0.306,0.435-0.917,0.242-1.395,0.243c-6.913,0.008-13.826,0.005-20.738,0.006C535.211,57.595,530.627,57.595,526.042,57.595z"/>
		<path fill-rule="evenodd" clip-rule="evenodd" fill="#063660" d="M472.411,233.796c0.45-3.551,0.901-7.102,1.352-10.654
			c4.914-0.05,9.829-0.099,14.743-0.148c0.174,3.326,0.347,6.651,0.521,9.978c-0.089,9.094,0.75,18.113,2.17,27.087
			c-0.016,0.063-0.056,0.133-0.043,0.189c0.029,0.125,0.084,0.242,0.128,0.361l0.007,0.097c0.071,0.349,0.142,0.696,0.212,1.046
			c0.381,3.329,0.731,6.662,1.164,9.984c0.128,0.984,0.112,1.659-1.132,1.536c-1.5,0.005-3,0.01-4.5,0.015
			c-1.109-0.466-0.789-1.546-0.933-2.363c-0.537-3.046-0.97-6.108-1.442-9.163c0.046-0.466,0.057-0.92-0.292-1.293
			c-1.353-8.829-2.16-17.704-2.328-26.635c0.073-0.739,0.307-1.541-0.922-1.536c-1.051,0.002-1.491,0.472-1.352,1.503
			c-0.254,1.742-0.462,3.491-0.769,5.225c-1.254,7.125-1.396,14.276-0.601,21.456c0.01,0.428,0.019,0.854,0.028,1.28
			c0.063,3.127,0.13,6.256,0.184,9.385c0.013,0.727,0.342,1.563-0.594,2.018c-1.411-0.294-2.829-0.28-4.25-0.083
			c-1.094-0.094-1.226-0.815-1.287-1.744c-0.208-3.202-0.501-6.398-0.762-9.597c-0.034-0.421-0.07-0.842-0.104-1.263
			c-0.064-1.614-0.102-3.23-0.2-4.843c-0.233-3.854-0.705-7.692-0.147-11.57C471.752,240.656,472.036,237.221,472.411,233.796z"/>
		<path fill-rule="evenodd" clip-rule="evenodd" fill="#FCD375" d="M488.506,222.993c-4.915,0.05-9.829,0.099-14.743,0.148
			c-0.579-3.934-0.287-7.91-0.544-11.858c0.2-3.125,0.167-6.164-2.928-8.098c-3.463-3.824-7.279-7.319-10.536-11.336
			c-2.355-3.081-4.751-6.128-7.43-8.941c-0.129-0.408-0.403-0.813-0.044-1.24c1.075-0.947,2.151-1.897,3.227-2.846
			c0.784-0.674,1.296-0.322,1.857,0.376c1.036,1.288,2.157,2.507,3.242,3.753c2.236,2.977,4.5,5.93,7.146,8.563
			c1.834,2.579,4.386,4.499,6.396,6.901c1.388,1.66,2.874,2.521,5.025,1.873c1.323,0,2.647,0,3.971,0
			c1.581,0.124,3.2,0.095,4.446,1.354c0.634,0.639,1.317,1.235,2.237,1.445c1.73,2.62,4.484,4.138,6.718,6.215
			c0.555,0.516,0.861-0.195,1.122-0.526c0.955-1.21,1.86-2.46,2.785-3.694c1.057-1.257,2.09-2.536,3.181-3.765
			c0.517-0.582,0.844-1.494,1.898-1.34c0.854,0.951,1.529,2.111,2.883,2.48c0.571,0.809,0.427,1.452-0.215,2.235
			c-2.626,3.207-5.17,6.48-7.745,9.729c-3.016,1.649-4.197,1.564-6.832-0.548c-0.763-0.611-1.481-1.28-2.21-1.936
			c-0.588-0.526-1.303-1.007-2.034-0.681c-0.682,0.303-0.688,1.172-0.704,1.867C488.602,216.415,488.559,219.703,488.506,222.993z"
			/>
		<path fill-rule="evenodd" clip-rule="evenodd" fill="#84B4FD" d="M406.516,285.127c-0.021-3.029-0.127-6.062-0.037-9.088
			c0.08-2.61,2.01-4.48,4.669-4.496c8.956-0.054,17.914-0.049,26.87-0.002c2.657,0.014,4.562,1.765,4.679,4.484
			c0.136,3.158,0.349,6.336-0.048,9.5c-1.816,2.384-4.302,2.609-7.092,2.56c-7.739-0.139-15.483-0.148-23.222,0.009
			C409.701,288.146,407.851,287.306,406.516,285.127z"/>
		<path fill-rule="evenodd" clip-rule="evenodd" fill="#063660" d="M403.059,72.773c-0.033-0.396-0.064-0.794-0.096-1.191
			c-0.891-3.33-1.542-6.636-0.317-10.069c0.585-1.641,0.805-3.413,1.189-5.125c0.434-2.258,0.869-4.517,1.303-6.775
			c0.589-0.629,0.474-1.451,0.489-2.183c0.062-3.198,0.046-6.398,0.058-9.597c6.688-0.511,12.571,5.469,11.82,12.049
			c-0.068,0.607-0.327,1.214-0.591,1.776c-2.064,4.38-4.101,8.775-6.261,13.108c-0.641,1.287-0.729,2.471-0.413,3.819
			c0.865,3.691,1.667,7.397,2.493,11.098c0.722,3.244,1.443,6.487,2.165,9.731c0.071,1.084,0.697,2.103,0.383,3.233
			c-1.257,0.031-2.515,0.063-3.772,0.094c-1.878,0.246-2.834-0.61-3.011-2.465c-0.031-0.327-0.254-0.636-0.387-0.953
			c-0.879-3.132-1.757-6.264-2.637-9.396C404.715,77.529,404.621,74.903,403.059,72.773z"/>
		<path fill-rule="evenodd" clip-rule="evenodd" fill="#FCD375" d="M405.685,37.833c-0.012,3.199,0.004,6.399-0.058,9.597
			c-0.015,0.732,0.101,1.554-0.489,2.183c-2.836,0.424-5.665,0.904-8.511,1.252c-1.565,0.191-2.411,0.544-1.811,2.437
			c0.546,1.719,0.695,3.566,1.02,5.356c0.354,1.938-0.282,3.625-1.325,5.208c-1.304,1.382-2.227,3.033-3.261,4.606
			c-2.011,2.882-4.037,5.755-6.024,8.654c-0.548,0.799-1.042,1.549-2.179,1.047c-0.656-1.03-1.818-1.327-2.783-1.91
			c-0.98-0.896-0.454-1.709,0.111-2.555c1.502-2.249,2.98-4.514,4.469-6.773c0.863-0.713,1.395-1.656,1.852-2.653
			c1.201-1.736,3.243-3.118,3.077-5.472c-0.156-2.215-0.791-4.397-1.215-6.594c-0.011-1.048,0.142-2.136-0.743-2.965
			c0.121-2.23-0.612-4.34-0.915-6.511c-0.27-1.372-0.539-2.743-0.809-4.115c4.328-2.448,8.972-1.427,13.537-1.218
			C401.65,37.501,403.666,37.688,405.685,37.833z"/>
		<path fill-rule="evenodd" clip-rule="evenodd" fill="#063660" d="M274.24,260.434c-0.5,0.742-0.151,1.534,0.002,2.234
			c1.36,6.192-1.155,11.906-2.159,17.799c-0.647,3.796-1.707,7.522-2.345,11.322c-0.252,1.498-0.921,1.817-2.174,1.737
			c-1.399-0.372-2.827-0.427-4.264-0.403c-0.298-3.234,0.627-6.35,0.979-9.518c0.512-4.595,1.276-9.162,1.868-13.749
			c0.371-2.864-0.761-5.479-1.547-8.143c-0.077-0.422-0.154-0.844-0.23-1.265c-0.554-2.358-1.11-4.717-1.664-7.073
			c1.167-0.507,2.334-1.012,3.501-1.517c1.823,2.158,3.92,2.563,6.326,0.986c0.637,0.712,0.826,1.59,0.857,2.498
			C273.449,257.08,273.736,258.773,274.24,260.434z"/>
		<path fill-rule="evenodd" clip-rule="evenodd" fill="#083049" d="M274.24,260.434c-0.504-1.66-0.791-3.354-0.85-5.09
			c-0.031-0.908-0.22-1.786-0.857-2.498c0.708-0.639,1.53-1.073,2.436-1.358c1.5,2.972,3.638,4.046,6.793,3.423
			c0.747-0.147,1.5-0.268,2.25-0.397c2.324,2.093,5.12,3.613,7.234,5.961c0.136,0.428,0.272,0.856,0.407,1.286
			c0.58,7.177,1.157,14.358,1.743,21.536c0.067,0.819,0.399,1.742-0.93,1.841c-1.499,0.225-2.999,0.45-4.498,0.676
			c-1.183-3.999-1.428-8.17-2.239-12.238c-0.482-2.415-0.926-4.847-1.17-7.292c-0.136-1.366-0.81-1.916-1.947-2.366
			C279.801,262.805,277.027,261.601,274.24,260.434z"/>
		<path fill-rule="evenodd" clip-rule="evenodd" fill="#CCDFEE" d="M291.652,261.76c-0.135-0.43-0.271-0.858-0.407-1.286
			c16.972,0,33.944,0.006,50.917-0.01c0.813-0.001,1.707,0.282,2.415-0.41c28.794,0,57.589,0.002,86.384,0.003
			c0.708,0.693,1.603,0.406,2.414,0.407c12.745,0.017,25.49,0.012,38.235,0.012c0.035,0.421,0.07,0.842,0.104,1.263
			c-53.955,0.006-107.909,0.011-161.864,0.016C303.784,261.756,297.718,261.756,291.652,261.76z"/>
		<path fill-rule="evenodd" clip-rule="evenodd" fill="#EDEDED" d="M430.137,16.514c-5.081,0-10.161,0.006-15.241-0.002
			c-2.222-0.003-2.297-0.158-1.434-2.251c4.502-10.913,15.788-10.408,21.584-3.008c0.69,0.881,1.244,0.883,2.121,0.64
			c2.866-0.799,5.57-0.534,7.982,1.36c0.386,0.303,0.824,0.602,1.072,1.005c0.381,0.624,1.318,1.19,0.917,1.952
			c-0.342,0.651-1.295,0.289-1.972,0.292C440.156,16.525,435.146,16.514,430.137,16.514z"/>
		<path fill-rule="evenodd" clip-rule="evenodd" fill="#C0DCF6" d="M488.506,222.993c0.053-3.29,0.096-6.578,0.169-9.867
			c0.016-0.695,0.022-1.564,0.704-1.867c0.731-0.326,1.446,0.154,2.034,0.681c0.729,0.655,1.447,1.324,2.21,1.936
			c2.634,2.112,3.816,2.197,6.832,0.548c0.11,4.61-0.055,9.176-3.018,13.055c-2.143,2.804-4.757,4.962-8.41,5.493
			C488.853,229.645,488.68,226.319,488.506,222.993z"/>
		<path fill-rule="evenodd" clip-rule="evenodd" fill="#568FD4" d="M406.516,285.127c1.335,2.179,3.185,3.02,5.819,2.967
			c7.739-0.157,15.483-0.147,23.222-0.009c2.79,0.05,5.276-0.176,7.092-2.56c0.107,1.123,0.141,2.242-0.104,3.36
			c-0.514,2.345-2.008,3.733-4.424,3.747c-9.011,0.047-18.021,0.056-27.031-0.006c-2.709-0.017-4.351-1.737-4.591-4.548
			C406.415,287.104,406.505,286.112,406.516,285.127z"/>
		<path fill-rule="evenodd" clip-rule="evenodd" fill="#F5C76B" d="M266.208,251.859c-1.167,0.505-2.334,1.01-3.501,1.517
			c-2.205-4.539-4.591-9.003-6.559-13.643c-1.681-3.965,0.827-7.907,5.798-9.793c1.5,1.133,3.046,2.181,4.977,2.75
			c-0.104-1.522-0.199-2.905-0.294-4.288c1.191-0.061,2.272-0.777,3.506-0.585c-0.592,1.336-0.551,2.666-0.191,4.084
			c1.082,4.255,2.069,8.535,3.094,12.805c-1.734,1.838-2.4,1.832-3.705-0.037c-0.882-1.266-1.708-2.573-2.651-3.789
			c-1.677-2.155-2.95-4.601-4.847-6.602c-0.971-1.021-2.056-1.125-3.261-0.659c-2.111,0.813-2.626,2.91-1.291,5.019
			C260.128,243.132,263.6,247.204,266.208,251.859z"/>
		<path fill-rule="evenodd" clip-rule="evenodd" fill="#F5C76B" d="M386.901,42.741c0.303,2.17,1.036,4.281,0.915,6.51
			c-0.536,1.52-1.823,2.652-2.196,4.257c-1.024,1.123-1.792,2.402-2.334,3.819c-3.088,2.989-7.033,4.793-10.341,7.478
			c-2.822-0.313-5.617-0.763-8.32-1.668c4.21-2.833,8.407-5.685,12.639-8.486c0.813-0.538,1.282-1.297,1.751-2.073
			c1.97-3.256,3.913-6.527,5.865-9.792C385.552,42.77,386.227,42.755,386.901,42.741z"/>
		<path fill-rule="evenodd" clip-rule="evenodd" fill="#009DB0" d="M538.484,194.92c0.02-3.741-0.006-7.482,0.083-11.221
			c0.029-1.22-0.569-1.962-1.349-2.719c-1.267-1.228-2.504-2.486-3.733-3.754c-0.356-0.366-0.642-0.856-0.111-1.272
			c0.389-0.304,0.816-0.063,1.132,0.245c0.914,0.884,1.801,1.793,2.717,2.674c0.617,0.593,1.287,0.96,1.298-0.365
			c0.035-4.165,0.033-8.33-0.014-12.494c-0.013-1.195-1.134-1.726-1.835-2.481c-1.008-1.085-2.091-2.101-3.125-3.164
			c-0.349-0.358-0.714-0.815-0.246-1.28c0.467-0.463,0.938-0.102,1.28,0.257c1.15,1.202,2.27,2.434,3.402,3.655
			c0.186-0.111,0.372-0.223,0.558-0.336c0-3.707,0-7.412,0.001-11.119c0-2.613-0.011-5.224,0.014-7.835
			c0.004-0.512-0.165-1.296,0.708-1.229c0.667,0.051,0.543,0.729,0.546,1.195c0.014,3.106,0,6.212,0.021,9.318
			c0.003,0.46-0.231,1.085,0.34,1.33c0.568,0.244,0.851-0.354,1.192-0.668c0.572-0.524,1.067-1.137,1.666-1.625
			c0.492-0.401,0.961-1.541,1.6-0.904c0.751,0.749-0.377,1.31-0.852,1.828c-0.953,1.038-1.974,2.018-2.984,3.004
			c-0.575,0.56-0.989,1.14-0.983,2.011c0.026,4.373,0.012,8.744,0.012,13.344c1.638-0.819,2.493-2.232,3.689-3.238
			c0.459-0.385,0.955-1.148,1.572-0.477c0.587,0.639-0.184,1.111-0.568,1.578c-0.089,0.107-0.185,0.221-0.299,0.299
			c-3.945,2.664-4.834,6.408-4.478,10.975c0.372,4.771,0.093,9.595,0.1,14.395c-0.004,6.066-0.01,12.135-0.013,18.204
			c-0.465,0.004-0.929,0.009-1.394,0.014C538.451,207.014,538.468,200.967,538.484,194.92z"/>
		<path fill-rule="evenodd" clip-rule="evenodd" fill="#0C2545" d="M260.638,224.861c-0.583-0.142-0.97-1.121-1.755,0.112
			c-1.777,2.792-4.604,3.33-7.05,1.667c-2.212-1.505-2.804-4.421-1.362-6.705c1.551-2.458,4.391-2.956,7.19-1.261
			c0.178,0.107,0.357,0.212,0.663,0.396c1.106-2.8,3.026-4.457,6.167-4.285c0.047,0.894-0.482,1.597-0.781,2.375
			c-0.416,1.087-0.447,2.438-2.4,1.884c-1.057-0.3-2.011,1.68-1.13,2.181C262.218,222.38,260.964,223.606,260.638,224.861z"/>
		<path fill-rule="evenodd" clip-rule="evenodd" fill="#FCBCA0" d="M260.638,224.861c0.327-1.255,1.58-2.481-0.458-3.637
			c-0.88-0.501,0.074-2.48,1.13-2.181c1.953,0.554,1.984-0.797,2.4-1.884c0.298-0.778,0.828-1.481,0.781-2.375
			c2.746,0.075,4.357,2.229,5.438,4.06c0.609,1.032-0.148,3.672-1.597,4.953c-1.471,1.3-2.006,2.745-1.705,4.604
			c0.095,1.384,0.19,2.767,0.294,4.289c-1.931-0.569-3.477-1.617-4.977-2.75C261.702,228.199,262.765,226.119,260.638,224.861z"/>
		<path fill-rule="evenodd" clip-rule="evenodd" fill="#FCBCA0" d="M386.901,42.741c-0.674,0.014-1.349,0.028-2.023,0.043
			c-0.714-0.714-1.337-0.398-2.044,0.087c-3.141,2.151-5.606,1.891-8.054-1.033c-0.507-0.606-2.076-0.495-1.567-1.572
			c0.904-1.916,0.044-4.731,2.808-5.716c0.685,0.477,1.377,0.94,2.05,1.43c0.853,0.62,1.586,1.694,2.676,0.174
			c0.309-0.43,1.189-0.291,1.699,0.226c0.471,0.479,0.803,1.085,0.373,1.684c-1.166,1.622,0.505,2.208,1.211,2.32
			c1.224,0.195,0.538-1.222,0.904-1.843c0.386,0.029,0.773,0.057,1.159,0.086C386.362,39.998,386.631,41.37,386.901,42.741z"/>
		<path fill-rule="evenodd" clip-rule="evenodd" fill="#CCDFEE" d="M491.501,261.751c-0.07-0.35-0.141-0.697-0.212-1.046
			c0.767-0.077,1.533-0.218,2.299-0.22c11.413-0.015,22.827-0.01,34.239-0.01c0.422,0,0.846-0.002,1.267,0.016
			c0.364,0.016,0.761,0.094,0.744,0.543c-0.014,0.386-0.362,0.612-0.721,0.652c-0.557,0.064-1.125,0.065-1.687,0.065
			C515.455,261.754,503.479,261.752,491.501,261.751z"/>
		<path fill-rule="evenodd" clip-rule="evenodd" fill="#2A2331" d="M492.225,275.598c2.27,0.031,4.548,0.002,5.691,2.575
			c0.807,1.819,0.614,2.2-1.315,2.199c-2.172-0.001-4.351-0.146-6.515-0.016c-1.537,0.092-2.189-0.379-2.143-1.931
			c0.028-0.903-0.128-1.812-0.202-2.716C489.235,275.672,490.73,275.636,492.225,275.598z"/>
		<path fill-rule="evenodd" clip-rule="evenodd" fill="#2A2331" d="M477.996,280.249c-3.072,0.042-6.146,0.049-9.218,0.144
			c-1.219,0.039-1.401-0.365-1.07-1.472c0.699-2.329,1.924-3.083,5.77-3.323c1.503,0.019,3.009,0.038,4.515,0.057
			c0.04,0.486,0.081,0.975,0.12,1.462c0-0.002-0.066,0.083-0.066,0.083l0.066,0.084c-0.008,0.935-0.016,1.87-0.023,2.804
			c0-0.001-0.109,0.045-0.109,0.045L477.996,280.249z"/>
		<path fill-rule="evenodd" clip-rule="evenodd" fill="#2A2331" d="M267.401,296.494c1.046,0.034,2.093,0.082,3.139,0.103
			c1.01,0.018,1.927,0.281,2.715,0.938c0.735,0.612,1.377,1.471,1.154,2.328c-0.24,0.922-1.317,0.396-2.002,0.415
			c-2.447,0.067-4.906-0.089-7.345,0.064c-1.868,0.117-2.724-0.424-2.366-2.37c0.088-0.475,0.139-0.96,0.206-1.439
			C264.402,296.52,265.902,296.507,267.401,296.494z"/>
		<path fill-rule="evenodd" clip-rule="evenodd" fill="#2A2331" d="M292.88,288.584c1.039-0.188,2.073-0.41,3.118-0.559
			c0.904-0.127,1.829-0.244,2.692,0.221c0.895,0.479,1.868,1.11,1.8,2.152c-0.071,1.102-1.344,0.74-2.046,0.914
			c-2.389,0.594-4.889,0.788-7.226,1.52c-2.011,0.629-2.48-0.188-2.616-1.859c-0.034-0.417-0.151-0.828-0.23-1.24
			C289.874,289.351,291.377,288.967,292.88,288.584z"/>
		<path fill-rule="evenodd" clip-rule="evenodd" fill="#C0DCF6" d="M538.434,213.062c0.464-0.005,0.929-0.01,1.394-0.014
			c4.583,0.004,9.166,0.009,13.75,0.017c0.564,0.003,1.131-0.008,1.689,0.056c0.53,0.06,0.971,0.34,0.949,0.936
			c-0.024,0.701-0.615,0.67-1.098,0.674c-1.833,0.017-3.667,0.011-5.5,0.011c-5.218,0-10.436,0.012-15.654-0.018
			c-0.611-0.004-1.634,0.363-1.606-0.756c0.023-0.936,0.931-0.891,1.634-0.896C535.471,213.055,536.952,213.063,538.434,213.062z"/>
		<path fill-rule="evenodd" clip-rule="evenodd" fill="#0C2545" d="M384.933,38.54c-0.366,0.622,0.32,2.038-0.904,1.843
			c-0.706-0.112-2.376-0.698-1.211-2.32c0.43-0.599,0.099-1.205-0.373-1.684c-0.51-0.517-1.391-0.655-1.699-0.226
			c-1.089,1.521-1.823,0.446-2.676-0.174c-0.673-0.49-1.365-0.954-2.05-1.43c1.678-2.095,5.14-1.989,7.288,0.217
			C384.333,35.818,384.79,37.111,384.933,38.54z"/>
		<path fill-rule="evenodd" clip-rule="evenodd" fill="#FCBCA0" d="M508.415,202.458c-1.354-0.369-2.029-1.529-2.883-2.48
			c0.111-0.175,0.29-0.338,0.323-0.526c0.308-1.765,1.36-2.896,3.125-2.748c1.451,0.123,2.449,1.31,2.355,2.79
			C511.229,201.154,510.327,202.396,508.415,202.458z"/>
		<path fill-rule="evenodd" clip-rule="evenodd" fill="#CCDFEE" d="M264.37,260.449c0.076,0.421,0.153,0.843,0.23,1.265
			c-4.717,0.014-9.434,0.038-14.151,0.024c-0.552-0.001-1.485,0.281-1.414-0.713c0.053-0.754,0.876-0.535,1.395-0.538
			C255.076,260.46,259.723,260.457,264.37,260.449z"/>
		<path fill-rule="evenodd" clip-rule="evenodd" fill="#FCBCA0" d="M292.88,288.584c-1.503,0.383-3.007,0.767-4.509,1.148
			c-0.276-1.294,0.16-2.66-0.406-3.922c1.501-0.224,3.001-0.449,4.5-0.674C292.604,286.285,292.742,287.435,292.88,288.584z"/>
		<path fill-rule="evenodd" clip-rule="evenodd" fill="#FCBCA0" d="M267.401,296.494c-1.5,0.013-3,0.025-4.499,0.038
			c0.133-1.137,0.265-2.272,0.397-3.409c1.437-0.023,2.864,0.031,4.264,0.403C267.51,294.517,267.456,295.505,267.401,296.494z"/>
		<path fill-rule="evenodd" clip-rule="evenodd" fill="#FCBCA0" d="M477.993,275.654c-1.506-0.019-3.012-0.038-4.515-0.057
			c0.438-0.802,0.32-1.664,0.284-2.519c1.422-0.197,2.84-0.211,4.251,0.083C478.006,273.993,477.999,274.824,477.993,275.654z"/>
		<path fill-rule="evenodd" clip-rule="evenodd" fill="#FCBCA0" d="M492.225,275.598c-1.495,0.038-2.99,0.074-4.484,0.112
			c-0.238-0.809-0.474-1.615-0.71-2.424c1.502-0.005,3.002-0.01,4.502-0.015C491.418,274.149,491.686,274.914,492.225,275.598z"/>
		<path fill-rule="evenodd" clip-rule="evenodd" fill="#CCDFEE" d="M484.366,260.467c0.35,0.373,0.339,0.827,0.292,1.293
			c-2.079,0-4.157,0-6.235,0c-0.009-0.427-0.019-0.853-0.028-1.28C480.385,260.476,482.376,260.471,484.366,260.467z"/>
		<path fill-rule="evenodd" clip-rule="evenodd" fill="#CCDFEE" d="M491.282,260.608c-0.044-0.119-0.1-0.236-0.128-0.361
			c-0.013-0.057,0.027-0.126,0.043-0.189C491.376,260.218,491.438,260.395,491.282,260.608z"/>
		<polygon fill-rule="evenodd" clip-rule="evenodd" fill="#FCBCA0" points="478.112,277.283 478.046,277.199 478.112,277.116 
			478.244,277.206 		"/>
		<polygon fill-rule="evenodd" clip-rule="evenodd" fill="#FCBCA0" points="477.996,280.249 477.98,280.132 478.089,280.087 
			478.176,280.229 		"/>
		<path fill-rule="evenodd" clip-rule="evenodd" fill="#71ACDA" d="M411.369,233.818c-0.014,6.479-0.028,12.958-0.041,19.437
			c-15.355,0.011-30.711,0.022-46.066,0.033c-0.028-6.498-0.054-12.997-0.082-19.496
			C380.576,233.801,395.972,233.81,411.369,233.818z"/>
		<path fill-rule="evenodd" clip-rule="evenodd" fill="#FDFEFE" d="M387.759,226.193c-2.963-0.002-5.118-2.115-5.076-4.979
			c0.04-2.744,2.462-5.187,5.116-5.158c2.583,0.028,5.019,2.432,5.047,4.981C392.881,224.146,390.858,226.195,387.759,226.193z"/>
		<path fill-rule="evenodd" clip-rule="evenodd" fill="#D6E7F6" d="M408.111,89.325c0.133,0.317,0.356,0.625,0.387,0.953
			c0.176,1.855,1.132,2.711,3.011,2.465c0.146,0.693,0.292,1.386,0.438,2.078c-4.347,0.266-5.432,1.127-5.892,4.675
			c-7.617,0.014-15.233,0.025-22.85,0.044c-4.234,0.011-6.001,1.635-6.005,5.828c-0.031,26.872-0.029,53.744-0.002,80.615
			c0.004,4.223,1.75,5.871,5.96,5.873c25.531,0.002,51.063-0.003,76.595-0.006c3.257,4.017,7.073,7.512,10.536,11.336
			c-22.657,0.008-45.313,0.021-67.97,0.024c-38.538,0.003-77.076-0.014-115.613,0.042c-1.82,0.002-2.354-0.379-2.35-2.294
			c0.064-36.491,0.061-72.981,0.005-109.472c-0.003-1.775,0.457-2.19,2.206-2.188C327.083,89.346,367.596,89.329,408.111,89.325z
			 M332.336,191.857c9.522,0,19.045,0.005,28.567-0.002c4.433-0.002,6.093-1.682,6.095-6.161
			c0.004-12.345,0.001-24.688,0.001-37.033c0-5.309-1.453-6.763-6.779-6.764c-17.706-0.003-35.41-0.001-53.115-0.001
			c-1.411,0-2.826-0.068-4.231,0.022c-2.996,0.193-4.481,1.587-4.485,4.247c-0.019,13.825,0,27.649-0.019,41.475
			c-0.003,2.068,0.962,3.265,2.903,3.867c0.97,0.3,1.929,0.353,2.917,0.353C313.574,191.856,322.955,191.857,332.336,191.857z
			 M332.704,125.784c10.363,0,20.727-0.004,31.09,0.004c1.248,0.001,2.647,0.016,2.698-1.606c0.051-1.637-1.394-1.667-2.604-1.762
			c-0.21-0.017-0.423-0.003-0.634-0.003c-20.375,0-40.749-0.003-61.124,0.01c-0.693,0-1.407,0.076-2.075,0.252
			c-0.72,0.19-1.278,0.657-1.195,1.516c0.085,0.884,0.639,1.404,1.488,1.538c0.551,0.087,1.125,0.05,1.688,0.05
			C312.258,125.784,322.481,125.784,332.704,125.784z M326.414,132.137c-7.337,0-14.675,0-22.012,0c-1.411,0-2.822-0.002-4.233,0.02
			c-0.611,0.01-1.1,0.256-1.268,0.906c-0.182,0.703,0.111,1.233,0.642,1.667c0.542,0.443,1.192,0.372,1.822,0.372
			c16.65,0.002,33.301,0.006,49.952-0.007c1.103-0.001,2.476,0.158,2.526-1.492c0.053-1.77-1.375-1.455-2.454-1.457
			C343.065,132.13,334.74,132.137,326.414,132.137z M326.571,113.497c-7.895,0-15.79-0.001-23.684,0
			c-0.846,0-1.692,0.002-2.538,0.009c-0.786,0.005-1.399,0.262-1.485,1.15c-0.08,0.818,0.379,1.367,1.076,1.638
			c0.439,0.171,0.965,0.164,1.453,0.165c16.635,0.007,33.27,0.003,49.906,0.012c1.207,0.001,2.458-0.112,2.51-1.591
			c0.064-1.789-1.456-1.366-2.496-1.369C343.065,113.485,334.818,113.497,326.571,113.497z"/>
		<path fill-rule="evenodd" clip-rule="evenodd" fill="#CCDFEE" d="M403.059,72.773c1.562,2.13,1.656,4.755,2.415,7.156
			c-1.107,0.028-2.215,0.055-3.323,0.082C402.389,77.59,403.309,75.255,403.059,72.773z"/>
		<path fill-rule="evenodd" clip-rule="evenodd" fill="#EDEDED" d="M360.365,79.803c0.234,0.045,0.468,0.09,0.703,0.135
			C360.833,79.893,360.599,79.848,360.365,79.803z"/>
		<path fill-rule="evenodd" clip-rule="evenodd" fill="#D6E7F6" d="M415.281,92.648c0.314-1.13-0.312-2.149-0.383-3.233
			c0.633-0.025,1.267-0.071,1.901-0.071c24.483-0.003,48.966,0.021,73.451-0.048c1.872-0.005,2.321,0.47,2.317,2.325
			c-0.058,36.337-0.042,72.675-0.043,109.012c0,2.624-0.006,2.624-2.698,2.454c-0.92-0.21-1.603-0.807-2.237-1.445
			c-1.246-1.259-2.865-1.229-4.446-1.354c-0.034-0.907-0.066-1.817-0.099-2.727c1.419-0.567,2.412-1.629,3.276-2.838
			c0.886,0.113,1.467-0.334,1.677-1.125c0.223-0.838-0.36-1.216-1.091-1.404c-0.969-4.367-2.827-5.771-7.236-5.466
			c0.004-27.145,0.008-54.289,0.012-81.435c0-4.419-1.332-5.754-5.783-5.755c-18.19-0.004-36.38,0-54.571-0.006
			c-0.985,0-1.971-0.065-2.956-0.1c-0.022-1.537,0.292-3.095-0.305-4.592C415.891,94.081,415.801,93.287,415.281,92.648z"/>
		<path fill-rule="evenodd" clip-rule="evenodd" fill="#84B4FD" d="M393.443,80.41c-1.96-0.142-3.504-0.822-4.21-2.716
			c-0.651-1.745,0.083-3.825,1.741-4.765c1.638-0.93,3.309-0.768,4.68,0.515c1.431,1.337,1.91,3.083,0.75,4.757
			c-0.941,1.358,0.071,2.041,0.54,2.977c0.23,0.459,0.834,0.981,0.1,1.446c-0.779,0.495-0.881-0.387-1.222-0.741
			C395.134,81.166,395.097,79.417,393.443,80.41z M395.501,76.667c0.023-1.834-1.091-3.053-2.571-2.961
			c-1.558,0.098-2.464,0.988-2.607,2.536c-0.137,1.483,1.056,2.63,2.648,2.637C394.611,78.887,395.441,78.05,395.501,76.667z"/>
		<path fill-rule="evenodd" clip-rule="evenodd" fill="#FCBCA0" d="M380.265,76.263c0.965,0.583,2.127,0.88,2.783,1.91
			c0.329,1.966-0.45,3.406-2.37,3.804c-1.5,0.311-2.557-0.712-2.868-2.158C377.393,77.866,378.592,76.862,380.265,76.263z"/>
		<path fill-rule="evenodd" clip-rule="evenodd" fill="#083049" d="M394.511,63.866c0.82,1.847,1.639,3.694,2.458,5.542
			c-1.906-0.312-3.813-0.624-5.719-0.937C392.284,66.898,393.208,65.248,394.511,63.866z"/>
		<path fill-rule="evenodd" clip-rule="evenodd" fill="#FCD375" d="M266.208,251.859c-2.608-4.655-6.08-8.728-8.926-13.222
			c-1.336-2.108-0.821-4.205,1.291-5.019c1.205-0.466,2.29-0.362,3.261,0.659c1.897,2.001,3.17,4.446,4.847,6.602
			c0.944,1.216,1.769,2.523,2.651,3.789c1.304,1.869,1.97,1.875,3.705,0.037c3.127-0.796,5.495-3.043,8.346-4.364
			c0.565-0.262,1.13-1.092,1.762-0.079c0.66,1.086,1.32,2.172,1.981,3.26c0.787,1.124,0.435,1.745-0.738,2.417
			c-3.161,1.81-6.446,3.415-9.417,5.548c-0.906,0.285-1.729,0.72-2.437,1.358C270.127,254.423,268.03,254.018,266.208,251.859z"/>
		<path fill-rule="evenodd" clip-rule="evenodd" fill="#FCBCA0" d="M285.125,243.522c-0.661-1.088-1.321-2.174-1.981-3.26
			c0.946,0.001,1.525-0.557,2.088-1.246c1.057-1.289,2.474-1.419,3.79-0.619c1.079,0.657,1.611,1.801,1.03,3.124
			c-0.642,1.46-1.73,2.211-3.37,1.802C286.107,243.179,285.591,243.021,285.125,243.522z"/>
		<path fill-rule="evenodd" clip-rule="evenodd" fill="#C0DCF6" d="M482.038,233.832c-0.758-0.012-1.516-0.022-2.274-0.033
			c-0.139-1.031,0.301-1.501,1.352-1.503C482.345,232.291,482.111,233.093,482.038,233.832z"/>
		<path fill-rule="evenodd" clip-rule="evenodd" fill="#FEFEFE" d="M416.373,99.434c0.986,0.035,1.972,0.1,2.957,0.1
			c18.191,0.006,36.381,0.002,54.571,0.006c4.451,0.001,5.784,1.336,5.783,5.755c-0.004,27.146-0.008,54.29-0.012,81.435
			c-2.264,0.809-3.585,2.451-4.185,4.731c-2.578,0.018-5.156,0.035-7.735,0.054c-2.646-2.634-4.911-5.587-7.146-8.563
			c3.981-1.541,5.092-3.168,5.093-7.475c0.001-6.63,0.014-13.259-0.004-19.889c-0.013-4.297-2.515-6.834-6.838-6.86
			c-6.912-0.039-13.823-0.045-20.733,0.004c-3.88,0.028-6.607,2.639-6.651,6.472c-0.08,7.122-0.093,14.246,0.002,21.367
			c0.051,3.843,2.668,6.339,6.465,6.37c4.795,0.035,9.591-0.018,14.385-0.033c2.679,2.813,5.075,5.86,7.43,8.941
			c-25.531,0.003-51.063,0.008-76.595,0.006c-4.211-0.002-5.957-1.65-5.96-5.873c-0.027-26.871-0.029-53.743,0.002-80.615
			c0.004-4.193,1.771-5.817,6.005-5.828c7.617-0.019,15.233-0.03,22.85-0.044C409.495,99.475,412.934,99.454,416.373,99.434z"/>
		<path fill-rule="evenodd" clip-rule="evenodd" fill="#84B4FD" d="M452.324,182.908c-4.794,0.016-9.59,0.068-14.385,0.033
			c-3.797-0.031-6.414-2.527-6.465-6.37c-0.095-7.121-0.082-14.245-0.002-21.367c0.044-3.833,2.771-6.444,6.651-6.472
			c6.911-0.049,13.822-0.043,20.733-0.004c4.323,0.025,6.825,2.563,6.838,6.86c0.018,6.63,0.006,13.259,0.004,19.889
			c-0.001,4.307-1.112,5.934-5.093,7.475c-1.085-1.246-2.207-2.465-3.242-3.753c-0.561-0.698-1.073-1.05-1.857-0.376
			c-0.013-0.354,0.027-0.717-0.047-1.056c-0.342-1.57-1.104-2.739-2.888-2.879c-1.672-0.13-2.716,0.723-3.154,2.229
			c-0.483,1.655,0.29,2.871,1.722,3.681c0.43,0.243,0.914,0.377,1.14,0.871C451.92,182.096,452.195,182.5,452.324,182.908z"/>
		<path fill-rule="evenodd" clip-rule="evenodd" fill="#D6E7F6" d="M467.752,191.515c2.579-0.019,5.157-0.036,7.735-0.054
			c-0.095,2.878,1.217,4.878,3.797,6.088c-0.037,0.913-0.075,1.827-0.111,2.74c-2.152,0.648-3.637-0.213-5.025-1.873
			C472.138,196.014,469.586,194.094,467.752,191.515z"/>
		<path fill-rule="evenodd" clip-rule="evenodd" fill="#FCBCA0" d="M452.279,181.668c-0.227-0.494-0.71-0.628-1.14-0.871
			c-1.432-0.81-2.205-2.025-1.722-3.681c0.438-1.506,1.481-2.358,3.154-2.229c1.784,0.14,2.546,1.309,2.888,2.879
			c0.075,0.339,0.035,0.702,0.047,1.056C454.431,179.771,453.354,180.721,452.279,181.668z"/>
		<path fill-rule="evenodd" clip-rule="evenodd" fill="#FCBCA0" d="M479.173,200.289c0.037-0.913,0.074-1.827,0.111-2.74
			c1.253,0.351,2.506,0.322,3.761,0.014c0.033,0.909,0.065,1.819,0.099,2.727C481.82,200.289,480.496,200.289,479.173,200.289z"/>
		<path fill-rule="evenodd" clip-rule="evenodd" fill="#083049" d="M403.835,56.388c-2.666,0.757-5.333,1.513-8,2.27
			c-0.324-1.79-0.473-3.637-1.019-5.356c-0.601-1.893,0.246-2.246,1.811-2.437c2.846-0.348,5.675-0.828,8.511-1.252
			C404.704,51.871,404.27,54.13,403.835,56.388z"/>
		<path fill-rule="evenodd" clip-rule="evenodd" fill="#FCBCA0" d="M415.281,92.648c0.52,0.639,0.609,1.432,0.789,2.193
			c-1.373-0.007-2.748-0.014-4.122-0.021c-0.147-0.692-0.292-1.385-0.438-2.078C412.766,92.711,414.024,92.679,415.281,92.648z"/>
		<path fill-rule="evenodd" clip-rule="evenodd" fill="#083049" d="M386.696,64.282c-0.973-2.398-2.805-4.375-3.413-6.953
			c0.543-1.419,1.311-2.698,2.335-3.822c0.98-0.431,1.959-0.861,2.939-1.291c0.425,2.196,1.06,4.378,1.215,6.594
			C389.939,61.165,387.897,62.546,386.696,64.282z"/>
		<path fill-rule="evenodd" clip-rule="evenodd" fill="#EDEDED" d="M388.558,52.217c-0.979,0.43-1.958,0.86-2.939,1.291
			c0.374-1.604,1.66-2.736,2.196-4.256C388.7,50.081,388.547,51.169,388.558,52.217z"/>
		<path fill-rule="evenodd" clip-rule="evenodd" fill="#C0DCF6" d="M365.262,253.288c15.355-0.011,30.711-0.022,46.066-0.033
			c3.807,0.014,7.617-0.036,11.423,0.064c2.329,0.062,4.651,0.356,6.416,2.181c1.229,1.269,1.975,2.73,1.793,4.557
			c-28.795-0.001-57.589-0.003-86.384-0.003c0.169-4.552,3.529-6.67,7.595-6.74C356.534,253.237,360.898,253.29,365.262,253.288z"/>
		<path fill-rule="evenodd" clip-rule="evenodd" fill="#FDFEFE" d="M332.336,191.857c-9.381,0-18.763-0.001-28.144,0.003
			c-0.988,0-1.947-0.053-2.917-0.353c-1.941-0.603-2.907-1.799-2.903-3.867c0.019-13.826,0-27.65,0.019-41.475
			c0.003-2.66,1.489-4.054,4.485-4.247c1.405-0.09,2.82-0.022,4.231-0.022c17.705,0,35.409-0.001,53.115,0.001
			c5.326,0,6.778,1.455,6.779,6.764c0,12.344,0.003,24.688-0.001,37.033c-0.002,4.479-1.662,6.159-6.095,6.161
			C351.381,191.862,341.859,191.857,332.336,191.857z M313.773,166.465c4.551,0.759,9.585-4.762,9.288-9.134
			c-0.377-5.537-3.996-9.523-9.459-9.514c-5.048,0.01-9.267,4.225-9.278,9.271C304.312,162.684,308.124,166.467,313.773,166.465z
			 M332.455,177.053c6.835,0,13.67,0,20.507,0c1.479,0,2.959-0.004,4.439-0.009c0.778-0.003,1.423-0.235,1.51-1.125
			c0.088-0.909-0.44-1.468-1.243-1.73c-0.388-0.128-0.835-0.099-1.255-0.099c-15.926-0.004-31.852-0.001-47.778-0.008
			c-1.285,0-2.602,0.119-2.534,1.767c0.066,1.598,1.488,1.187,2.464,1.189C316.528,177.063,324.492,177.053,332.455,177.053z
			 M321.674,181.272c-4.505,0-9.011-0.005-13.516,0.004c-0.907,0.001-2.019-0.13-2.07,1.184c-0.052,1.351,0.899,1.776,2.106,1.776
			c9.011,0,18.021,0,27.032,0.002c1.118,0,2.022-0.394,2.072-1.607c0.061-1.478-1.123-1.354-2.108-1.354
			C330.684,181.268,326.179,181.272,321.674,181.272z"/>
		<path fill-rule="evenodd" clip-rule="evenodd" fill="#FDFEFE" d="M332.704,125.784c-10.223,0-20.445,0-30.668-0.002
			c-0.563,0-1.137,0.037-1.688-0.05c-0.849-0.134-1.402-0.653-1.488-1.538c-0.083-0.858,0.475-1.326,1.195-1.516
			c0.668-0.176,1.381-0.252,2.075-0.252c20.375-0.013,40.749-0.01,61.124-0.01c0.211,0,0.424-0.013,0.634,0.003
			c1.211,0.094,2.656,0.125,2.604,1.762c-0.05,1.622-1.45,1.608-2.698,1.606C353.431,125.779,343.067,125.784,332.704,125.784z"/>
		<path fill-rule="evenodd" clip-rule="evenodd" fill="#FDFEFE" d="M326.414,132.137c8.326,0,16.651-0.007,24.977,0.009
			c1.079,0.002,2.507-0.313,2.454,1.457c-0.051,1.65-1.424,1.491-2.526,1.492c-16.651,0.014-33.302,0.01-49.952,0.007
			c-0.63,0-1.28,0.071-1.822-0.372c-0.53-0.434-0.823-0.964-0.642-1.667c0.167-0.65,0.656-0.896,1.268-0.906
			c1.411-0.022,2.822-0.02,4.233-0.02C311.739,132.136,319.077,132.137,326.414,132.137z"/>
		<path fill-rule="evenodd" clip-rule="evenodd" fill="#FDFEFE" d="M326.571,113.497c8.247,0,16.494-0.012,24.741,0.014
			c1.04,0.003,2.56-0.42,2.496,1.369c-0.053,1.479-1.303,1.592-2.51,1.591c-16.636-0.009-33.271-0.005-49.906-0.012
			c-0.487,0-1.013,0.007-1.453-0.165c-0.697-0.271-1.155-0.82-1.076-1.638c0.086-0.889,0.699-1.145,1.485-1.15
			c0.846-0.006,1.692-0.009,2.538-0.009C310.781,113.496,318.676,113.497,326.571,113.497z"/>
		<path fill-rule="evenodd" clip-rule="evenodd" fill="#2A2331" d="M411.948,94.82c1.374,0.007,2.749,0.014,4.122,0.021
			c0.596,1.497,0.281,3.055,0.304,4.592c-3.439,0.021-6.879,0.042-10.317,0.062C406.516,95.948,407.601,95.086,411.948,94.82z"/>
		<path fill-rule="evenodd" clip-rule="evenodd" fill="#0C2545" d="M483.045,197.563c-1.254,0.309-2.508,0.337-3.761-0.014
			c-2.58-1.21-3.893-3.21-3.797-6.088c0.6-2.28,1.921-3.923,4.185-4.731c4.409-0.306,6.267,1.099,7.236,5.467
			c-0.194,0.844-0.391,1.687-0.586,2.528C485.457,195.934,484.464,196.995,483.045,197.563z"/>
		<path fill-rule="evenodd" clip-rule="evenodd" fill="#FCBCA0" d="M486.321,194.725c0.195-0.842,0.392-1.685,0.586-2.528
			c0.73,0.188,1.313,0.565,1.091,1.403C487.788,194.391,487.208,194.838,486.321,194.725z"/>
		<path fill-rule="evenodd" clip-rule="evenodd" fill="#FDFEFE" d="M395.501,76.667c-0.06,1.383-0.89,2.22-2.53,2.211
			c-1.593-0.007-2.786-1.154-2.648-2.637c0.143-1.548,1.05-2.438,2.607-2.536C394.41,73.614,395.524,74.833,395.501,76.667z"/>
		<path fill-rule="evenodd" clip-rule="evenodd" fill="#D6E7F6" d="M313.773,166.465c-5.649,0.002-9.461-3.781-9.45-9.376
			c0.011-5.046,4.23-9.262,9.278-9.271c5.464-0.01,9.082,3.977,9.459,9.514C323.358,161.703,318.324,167.224,313.773,166.465z"/>
		<path fill-rule="evenodd" clip-rule="evenodd" fill="#D6E7F6" d="M332.455,177.053c-7.963,0-15.926,0.01-23.889-0.015
			c-0.977-0.003-2.398,0.408-2.464-1.189c-0.068-1.647,1.249-1.767,2.534-1.767c15.926,0.007,31.852,0.004,47.778,0.008
			c0.42,0,0.867-0.029,1.255,0.099c0.803,0.263,1.331,0.821,1.243,1.73c-0.087,0.89-0.732,1.122-1.51,1.125
			c-1.479,0.005-2.959,0.009-4.439,0.009C346.125,177.053,339.29,177.053,332.455,177.053z"/>
		<path fill-rule="evenodd" clip-rule="evenodd" fill="#D6E7F6" d="M321.674,181.272c4.505,0,9.01-0.005,13.516,0.004
			c0.985,0.001,2.168-0.123,2.108,1.354c-0.05,1.214-0.954,1.607-2.072,1.607c-9.011-0.002-18.021-0.002-27.032-0.002
			c-1.207,0-2.158-0.426-2.106-1.776c0.051-1.313,1.163-1.183,2.07-1.184C312.663,181.268,317.168,181.272,321.674,181.272z"/>
	</g>
	<g>
		<path fill="#EDEDED" d="M708.774,104.014h16.87c2.616,0,4.783,0.469,6.502,1.406c1.718,0.938,3.046,2.285,3.983,4.042
			c0.469,0.82,0.849,1.621,1.142,2.402c0.293,0.781,0.517,1.728,0.674,2.841c0.155,1.113,0.264,2.48,0.322,4.101
			c0.059,1.621,0.088,3.661,0.088,6.121c0,1.523-0.029,3.096-0.088,4.715c-0.059,1.621-0.215,3.213-0.469,4.774
			c-0.254,1.562-0.635,3.026-1.142,4.393c-0.508,1.368-1.23,2.578-2.167,3.632c-0.938,1.054-2.109,1.884-3.515,2.49
			s-3.125,0.908-5.155,0.908h-17.046V104.014z M720.489,137.403h2.402c0.741,0,1.337-0.185,1.787-0.557
			c0.448-0.371,0.791-0.858,1.025-1.464c0.234-0.605,0.39-1.289,0.469-2.05c0.078-0.761,0.117-1.532,0.117-2.313v-12.184
			c0-1.055-0.04-1.982-0.117-2.783c-0.079-0.8-0.264-1.464-0.557-1.992c-0.293-0.527-0.713-0.927-1.259-1.201
			c-0.547-0.273-1.27-0.41-2.167-0.41h-1.699V137.403z"/>
		<path fill="#EDEDED" d="M760.789,139.453h-7.849l-1.172,6.385h-12.067l9.9-41.824h14.703l9.84,41.824h-12.066L760.789,139.453z
			 M756.982,113.152h-0.117l-2.695,17.163h5.331L756.982,113.152z"/>
		<path fill="#EDEDED" d="M770.279,104.014h27.648v9.841h-7.967v31.983h-11.715v-31.983h-7.967V104.014z"/>
		<path fill="#EDEDED" d="M815.149,139.453h-7.85l-1.171,6.385h-12.067l9.899-41.824h14.703l9.841,41.824h-12.066L815.149,139.453z
			 M811.342,113.152h-0.117l-2.694,17.163h5.33L811.342,113.152z"/>
		<path fill="#EDEDED" d="M864.588,104.014h11.013v41.824h-12.536l-6.502-25.774h-0.117v25.774h-10.661v-41.824h12.712l5.975,25.54
			h0.117V104.014z"/>
		<path fill="#EDEDED" d="M879.29,124.926c0-3.241,0.077-6.199,0.234-8.875c0.155-2.674,0.702-4.959,1.64-6.854
			c0.938-1.894,2.431-3.368,4.481-4.422c2.05-1.055,4.949-1.582,8.698-1.582s6.648,0.527,8.699,1.582
			c2.05,1.054,3.544,2.529,4.48,4.422c0.938,1.895,1.484,4.179,1.641,6.854c0.155,2.675,0.234,5.634,0.234,8.875
			c0,3.359-0.079,6.376-0.234,9.05c-0.156,2.675-0.703,4.95-1.641,6.824c-0.937,1.875-2.431,3.32-4.48,4.334
			c-2.051,1.015-4.95,1.523-8.699,1.523s-6.648-0.508-8.698-1.523c-2.051-1.015-3.544-2.46-4.481-4.334s-1.484-4.149-1.64-6.824
			C879.367,131.302,879.29,128.285,879.29,124.926z M897.331,124.926c0-3.046-0.039-5.496-0.117-7.352
			c-0.078-1.854-0.225-3.27-0.438-4.247c-0.216-0.976-0.519-1.62-0.908-1.933c-0.391-0.312-0.899-0.469-1.523-0.469
			c-0.625,0-1.133,0.157-1.522,0.469c-0.391,0.313-0.694,0.958-0.908,1.933c-0.215,0.977-0.361,2.393-0.439,4.247
			c-0.078,1.855-0.117,4.306-0.117,7.352s0.039,5.497,0.117,7.352c0.078,1.855,0.225,3.271,0.439,4.247
			c0.214,0.977,0.518,1.621,0.908,1.933c0.39,0.313,0.897,0.469,1.522,0.469c0.624,0,1.133-0.156,1.523-0.469
			c0.39-0.312,0.692-0.957,0.908-1.933c0.214-0.976,0.36-2.392,0.438-4.247C897.292,130.423,897.331,127.972,897.331,124.926z"/>
		<path fill="#EDEDED" d="M910.394,104.014h27.648v9.841h-7.967v31.983H918.36v-31.983h-7.967V104.014z"/>
		<path fill="#EDEDED" d="M698.229,191.226h-7.849l-1.172,6.385h-12.067l9.9-41.824h14.703l9.841,41.824h-12.067L698.229,191.226z
			 M694.421,164.924h-0.117l-2.694,17.163h5.331L694.421,164.924z"/>
		<path fill="#EDEDED" d="M728.748,155.786h12.359l-8.845,41.824h-15.113l-8.787-41.824h12.653l3.808,32.335h0.117L728.748,155.786z
			"/>
		<path fill="#EDEDED" d="M758.974,191.226h-7.849l-1.172,6.385h-12.067l9.9-41.824h14.703l9.841,41.824h-12.067L758.974,191.226z
			 M755.166,164.924h-0.117l-2.694,17.163h5.331L755.166,164.924z"/>
		<path fill="#EDEDED" d="M773.617,155.786h11.716v41.824h-11.716V155.786z"/>
		<path fill="#EDEDED" d="M789.315,155.786h11.716v32.335h12.77v9.489h-24.485V155.786z"/>
		<path fill="#EDEDED" d="M834.83,191.226h-7.85l-1.171,6.385h-12.067l9.899-41.824h14.703l9.841,41.824h-12.066L834.83,191.226z
			 M831.022,164.924h-0.117l-2.694,17.163h5.33L831.022,164.924z"/>
		<path fill="#EDEDED" d="M850.06,155.786h16.87c3.671,0,6.541,0.85,8.611,2.548c2.069,1.699,3.104,4.306,3.104,7.82
			c0,1.641-0.225,3.027-0.674,4.159c-0.449,1.133-1.006,2.061-1.669,2.782c-0.665,0.723-1.387,1.279-2.168,1.67
			s-1.503,0.664-2.167,0.819v0.117c0.586,0.079,1.318,0.234,2.196,0.469c0.879,0.234,1.719,0.694,2.52,1.377
			c0.8,0.684,1.493,1.66,2.079,2.929c0.586,1.27,0.879,2.958,0.879,5.066c0,2.109-0.293,3.916-0.879,5.419
			c-0.586,1.504-1.406,2.753-2.46,3.749c-1.055,0.996-2.324,1.728-3.808,2.196c-1.484,0.469-3.125,0.703-4.921,0.703H850.06V155.786
			z M861.775,172.246h1.757c0.391,0,0.781-0.067,1.172-0.205c0.39-0.136,0.752-0.352,1.084-0.644
			c0.331-0.293,0.604-0.693,0.82-1.201c0.214-0.507,0.321-1.151,0.321-1.934c0-2.694-1.191-4.041-3.572-4.041h-1.582V172.246z
			 M861.775,189.175h2.05c1.289,0,2.235-0.409,2.842-1.229c0.604-0.82,0.907-1.913,0.907-3.28c0-1.406-0.273-2.597-0.819-3.573
			c-0.548-0.976-1.504-1.465-2.871-1.465h-2.108V189.175z"/>
		<path fill="#EDEDED" d="M883.683,155.786h11.716v32.335h12.77v9.489h-24.485V155.786z"/>
		<path fill="#EDEDED" d="M910.804,155.786h25.188v9.489H922.52v6.443h12.594v9.139H922.52v7.264h14v9.489h-25.716V155.786z"/>
	</g>
</g>
</svg>
