<?xml version="1.0" encoding="utf-8"?>
<!-- Generator: Adobe Illustrator 21.1.0, SVG Export Plug-In . SVG Version: 6.00 Build 0)  -->
<svg version="1.1" id="Layer_1" xmlns="http://www.w3.org/2000/svg" xmlns:xlink="http://www.w3.org/1999/xlink" x="0px" y="0px"
	 viewBox="0 0 100 100" style="enable-background:new 0 0 100 100;" xml:space="preserve">
<style type="text/css">
	.st0{fill:#B4EEFC;}
	.st1{fill:#CCCCCC;}
	.st2{fill:#2B6FC1;}
</style>
<g>
	<path class="st0" d="M53,27.9c-0.7-1.6-1.2-2.9-1.8-4.2c-0.1,0-0.2,0.1-0.3,0.1c0.1,1,0.3,1.9,0.4,2.9c0.1,1.4-0.7,2.3-2,2.8
		c-1.8,0.6-3.4,0.4-4.9-0.6c-0.5-0.3-1.1-0.5-1.7-0.6c-0.8-0.2-1.5-0.3-2.4-0.5c-0.2,0.2-0.4,0.4-0.7,0.6c-1,0.7-2,0.8-3.1,0.3
		c-1-0.5-1.5-1.4-1.4-2.6c0.1-1.2,0.7-2.1,1.8-2.5c0.5-0.2,0.9-0.3,1-0.9c0.5-3.4,3.6-5.2,6.8-4c0.2,0.1,0.3,0.1,0.6,0.2
		c0.1-0.8,0.3-1.5,0.4-2.3c-1.1-0.3-2.2-0.8-2-2.1c0.1-0.6,0.6-1.4,1.2-1.8c0.9-0.6,1.8-0.1,2.5,0.7c2.2-2.1,4.7-3.6,7.9-2.6
		c3.2,0.9,4.6,3.4,5.3,6.4c0.1,0,0.2-0.1,0.4-0.1c-0.4-1.5-0.8-3.1-1.2-4.8c-0.1,0.1-0.1,0,0,0c1.5-0.6,2-1.8,2.5-3.3
		c1.3-4,5.3-6.7,9.6-6.6c4.2,0,8,2.8,9.4,6.9c1.4,4,0,8.5-3.3,11.1c-0.3,0.2-0.6,0.4-1,0.6c-0.6-1.9-1.4-3.5-3.3-4.4
		c0.4,1.1,0.9,2.1,1.1,3.2c1.2,5.5-3.1,10.7-8.9,10.9c-3,0.1-5.6-0.9-7.7-3.1c-0.4-0.4-0.7-0.5-1.3-0.3C55.6,27.5,54.2,27.7,53,27.9
		z"/>
	<path class="st1" d="M65.1,34.3c2.2,0,3.9,1.7,3.9,3.9c0,2.2-1.8,4-4,3.9c-2.1,0-3.8-1.8-3.8-3.9C61.2,36,62.9,34.3,65.1,34.3z"/>
	<path class="st1" d="M36.2,19.7c0,1.5-1.3,2.7-2.7,2.7c-1.4,0-2.6-1.2-2.6-2.7c0-1.5,1.2-2.7,2.7-2.6C35,17,36.2,18.2,36.2,19.7z"
		/>
	<path class="st1" d="M59.3,31.6c0,1.1-0.9,2-2,2c-1.1,0-2-0.9-1.9-2c0-1.1,0.9-2,2-2C58.4,29.6,59.3,30.6,59.3,31.6z"/>
	<g>
		<path class="st2" d="M92.4,98c0-1.2,0-2.2,0-3.4c-2.6,0-5.2,0-7.9,0c0-0.7,0-1.3,0-1.8c0-6.3,0-12.6,0-18.8c0-0.7-0.2-1.1-0.8-1.5
			c-4.2-2.9-8.4-5.8-12.7-8.7c-0.5-0.3-1.1-0.5-1.7-0.5c-7.3,0-14.5,0-21.8,0c-0.4,0-0.8,0-1.2-0.1c0-0.3-0.1-0.5-0.1-0.6
			C46,57,45.7,51.5,45.4,46c-0.2-2.8-0.3-5.7-0.5-8.5c0-0.4-0.3-1-0.6-1.1c-1.5-0.1-3,0-4.5,0c-0.5,8.4-0.9,16.7-1.3,24.9
			c-0.1,2-0.1,2-2.1,1.8c-0.1,0-0.1-0.1-0.3-0.2c-0.7-10.4-1.4-20.9-2.2-31.4c-2.9,0-5.6,0-8.4,0c-0.7,10.5-1.4,21-2.2,31.6
			c-2,0-3.9,0-5.9,0c0,10.5,0,20.9,0,31.3c-2,0-3.8,0-5.6,0c-0.3,0-0.6-0.1-0.9-0.1V98h1.3c0,0,0,0,0,0C39,98,65.7,98,92.4,98z
			 M61.8,88.7c-3.7,0-7.2,0-10.9,0c0-1,0-1.9,0-2.9c3.6,0,7.2,0,10.9,0C61.8,86.8,61.8,87.7,61.8,88.7z M77.2,88.8
			c-2.4,0-4.8,0-7.1,0c-0.4,0-0.8,0-1.4,0c0-1.1,0-2.1,0-3.1c3.6,0,7.2,0,10.8,0c0.1,0.2,0.1,0.2,0.1,0.3
			C79.8,88.8,79.8,88.8,77.2,88.8z M68.7,74.8c3.6,0,7.3,0,10.9,0c0,1,0,2,0,3c-3.7,0-7.2,0-10.9,0C68.7,76.8,68.7,75.8,68.7,74.8z
			 M68.6,80.3c0.3,0,0.5-0.1,0.7-0.1c3.1,0,6.1,0,9.2,0c0.8,0,1.2,0.2,1.1,1.1c-0.1,0.6,0,1.2,0,1.9c-3.7,0-7.3,0-11,0
			C68.6,82.2,68.6,81.3,68.6,80.3z M61.9,83.2c-3.6,0-7.2,0-11,0c0-0.8,0-1.7,0-2.5c0-0.2,0.3-0.4,0.5-0.4c3.5,0,7,0,10.5,0
			C61.9,81.3,61.9,82.2,61.9,83.2z M50.8,77c0.1-0.7,0-1.4,0-2.2c3.7,0,7.3,0,11,0c0,1,0,2,0,3c-0.4,0-0.8,0.1-1.2,0.1
			c-3,0-5.9,0-8.9,0C51.1,77.9,50.8,77.7,50.8,77z M33.2,74.8c3.6,0,7.2,0,10.9,0c0.3,3.1,0.3,3-2.6,3c-2.7,0-5.5,0-8.3,0
			C33.2,76.8,33.2,75.9,33.2,74.8z M33.2,80.8c0-0.2,0.5-0.5,0.7-0.5c3.2,0,6.3,0,9.5,0c0.5,0,0.8,0.2,0.8,0.7c0,0.7,0,1.4,0,2.3
			c-3.7,0-7.3,0-11,0C33.1,82.4,33.1,81.6,33.2,80.8z M35.6,85.7c2.8,0,5.5,0,8.4,0c0,1,0,2,0,3c-3.6,0-7.2,0-10.8,0
			c-0.1-0.1-0.1-0.2-0.1-0.2C32.9,85.7,32.9,85.7,35.6,85.7z"/>
	</g>
</g>
</svg>
